<svg xmlns="http://www.w3.org/2000/svg" viewBox="0 0 32 32"><path d="M22 23.566c0 .77-.453 1.501-1.142 1.918L17 27.39v-1.765c0-.77.454-1.501 1.143-1.918L22 21.799v1.767zm-12 0v-1.767l3.785 1.869c.761.456 1.215 1.187 1.215 1.957v1.766l-3.786-1.868c-.76-.456-1.214-1.187-1.214-1.957zm5-8.836v1.767l-3.786-1.869C10.454 14.171 10 13.44 10 12.67v-1.765l3.785 1.868c.761.456 1.215 1.188 1.215 1.957zm3.143-1.918L22 10.905v1.765c0 .77-.453 1.501-1.142 1.918L17 16.496V14.73c0-.769.454-1.501 1.143-1.918zM22 18.119c0 .769-.453 1.501-1.142 1.918L17 21.944v-1.767c0-.769.454-1.501 1.143-1.918L22 16.352v1.767zm-7 2.058v1.768l-3.786-1.869C10.454 19.62 10 18.888 10 18.119v-1.767l3.785 1.868c.761.456 1.215 1.188 1.215 1.957zm8-16.918a1 1 0 00-1 1v4.415l-4.815 2.384c-.065.039-.122.085-.185.126V3a1 1 0 10-2 0v8.193c-.086-.058-.166-.12-.257-.174L10 8.674V4.259a1 1 0 10-2 0v8.411c0 .484.096.954.264 1.4a1 1 0 00-.264.673v3.376c0 .483.096.952.264 1.398-.166.183-.264.42-.264.673v3.376c0 1.479.816 2.852 2.256 3.711l5.301 2.619c.014.008.032.005.047.011A.994.994 0 0016 30c.137 0 .27-.038.396-.093.015-.006.033-.003.047-.011l5.373-2.658C23.184 26.417 24 25.044 24 23.566V20.19a.999.999 0 00-.262-.671c.166-.446.262-.916.262-1.4v-3.376a.997.997 0 00-.262-.671c.166-.446.262-.917.262-1.402V4.259a1 1 0 00-1-1z" /></svg>
