<svg xmlns="http://www.w3.org/2000/svg" viewBox="0 0 32 32"><path d="M20.858 19.287h1.635a.989.989 0 00.358-.072c.043-.017.079-.043.119-.066.049-.026.1-.044.146-.08.015-.011.022-.03.036-.042.052-.047.09-.101.133-.158.037-.051.076-.097.102-.151.026-.054.038-.113.054-.171.019-.07.038-.135.042-.206 0-.02.01-.034.01-.054 0-.044-.02-.082-.025-.124a.873.873 0 00-.041-.202c-.023-.068-.057-.124-.093-.184-.023-.037-.031-.08-.06-.113l-3.361-4.223a.849.849 0 00.24-.084c.033-.015.067-.024.098-.044.03-.02.048-.05.076-.073a.947.947 0 00.251-.296.953.953 0 00.115-.371c.004-.036.02-.067.02-.103 0-.03-.013-.052-.015-.08a1.097 1.097 0 00-.112-.383c-.013-.025-.014-.051-.03-.074l-1.528-2.401 2.348-3.686 1.58 2.48-.011.003a1.084 1.084 0 00-.201.04c-.067.023-.124.059-.183.095-.037.022-.08.03-.114.057-.015.012-.021.03-.035.042-.053.047-.092.103-.134.16-.036.049-.075.095-.101.15-.027.054-.038.112-.054.172-.02.068-.038.134-.042.205-.001.018-.011.034-.011.054 0 .044.02.082.026.125a.942.942 0 00.04.2.987.987 0 00.094.184c.023.037.03.079.058.114l2.943 3.696h-1.313c-.045 0-.084.019-.127.025-.064.009-.126.017-.187.038a.93.93 0 00-.211.107c-.03.018-.062.023-.09.045-.012.01-.017.024-.03.035a.964.964 0 00-.17.2c-.022.035-.048.065-.066.1a.93.93 0 00-.077.242c-.01.044-.023.085-.027.13-.002.027-.015.05-.015.078 0 .06.023.113.034.17.008.047.013.09.027.136a.947.947 0 00.12.237c.017.024.02.054.04.077l3.797 4.808H21.46l-.603-.764zm-15.793.764l3.796-4.808c.019-.023.023-.053.039-.077a.947.947 0 00.12-.237c.015-.045.02-.09.028-.135.01-.058.035-.111.035-.171 0-.027-.014-.051-.016-.078-.003-.045-.017-.086-.026-.13a.972.972 0 00-.078-.241c-.018-.036-.044-.066-.066-.1a1 1 0 00-.171-.201c-.012-.011-.017-.025-.03-.035-.027-.022-.06-.028-.09-.045a.944.944 0 00-.21-.107c-.061-.021-.122-.03-.186-.038-.044-.006-.082-.025-.127-.025H6.769l2.943-3.696c.027-.035.036-.077.058-.114a.987.987 0 00.094-.183c.023-.067.032-.133.04-.202.006-.042.026-.08.026-.124 0-.02-.01-.036-.011-.054-.004-.071-.023-.137-.041-.206-.017-.06-.028-.116-.055-.171-.026-.055-.065-.101-.102-.151-.041-.057-.08-.112-.133-.16-.014-.011-.02-.03-.035-.041-.034-.027-.076-.035-.112-.057-.061-.036-.12-.072-.186-.095-.064-.022-.128-.03-.195-.04-.006 0-.011-.002-.017-.003l1.58-2.48 2.357 3.698-1.521 2.389c-.016.023-.017.049-.03.074a.99.99 0 00-.072.188.95.95 0 00-.04.195c-.001.028-.015.05-.015.08 0 .037.017.067.02.103a.953.953 0 00.367.667c.028.023.045.054.076.073.03.02.065.029.098.044a.838.838 0 00.239.084L8.74 17.664c-.028.034-.036.076-.058.113-.036.06-.071.116-.094.183a1.015 1.015 0 00-.041.203c-.005.042-.025.08-.025.124 0 .02.01.035.01.054.005.07.024.136.042.205.016.058.028.117.055.172.026.054.064.1.1.15.043.057.082.112.134.159.015.013.02.03.036.042.045.036.098.054.147.08.04.023.075.049.118.066a.99.99 0 00.358.072h1.64l-.603.764H5.065zM17.86 11.47c-.045 0-.083.019-.126.025a1.058 1.058 0 00-.2.04c-.067.023-.125.059-.184.095-.037.022-.078.03-.113.057-.015.012-.022.03-.036.042-.052.047-.092.103-.133.16-.037.049-.075.095-.102.15-.026.054-.038.112-.054.172-.018.068-.037.134-.041.205-.001.018-.011.034-.011.054 0 .044.019.082.025.125.009.068.017.134.04.2a.879.879 0 00.095.184c.022.037.03.079.058.114l3.34 4.194h-1.632c-.046 0-.084.02-.13.026a.978.978 0 00-.184.037.985.985 0 00-.212.108c-.028.017-.06.022-.087.044-.012.01-.017.024-.03.034-.068.06-.121.129-.173.205-.021.032-.047.06-.064.095-.04.077-.06.16-.08.247-.008.042-.02.082-.024.125-.002.027-.016.05-.016.079 0 .062.025.115.035.175.008.044.013.086.027.129a.933.933 0 00.122.242c.016.023.02.052.038.074l4.273 5.41H9.734l4.278-5.41c.027-.034.035-.074.056-.11a.988.988 0 00.095-.186c.023-.065.03-.131.04-.2.006-.042.025-.08.025-.124 0-.02-.01-.037-.011-.057-.004-.068-.023-.132-.041-.2-.016-.06-.03-.121-.056-.177-.026-.052-.063-.097-.1-.146a.919.919 0 00-.136-.161c-.014-.013-.021-.031-.036-.043-.033-.027-.074-.034-.111-.057a.996.996 0 00-.184-.094 1.001 1.001 0 00-.203-.041c-.041-.004-.078-.024-.122-.024h-1.631l3.34-4.194c.028-.035.036-.077.058-.114.036-.06.07-.116.094-.182a1.03 1.03 0 00.04-.203c.006-.043.026-.08.026-.124 0-.02-.01-.036-.011-.054-.004-.071-.023-.137-.041-.205-.016-.06-.028-.117-.055-.172-.025-.055-.065-.101-.101-.15-.042-.057-.081-.113-.133-.16-.015-.012-.021-.03-.036-.042-.035-.027-.076-.035-.113-.057-.06-.036-.117-.072-.184-.095a1.038 1.038 0 00-.198-.04c-.044-.006-.083-.025-.128-.025h-.031l1.884-2.957 1.884 2.957h-.031zm12.087 9.839c.018-.067.036-.132.04-.202.002-.02.012-.036.012-.056 0-.044-.02-.082-.025-.124-.01-.07-.017-.134-.04-.201a1.015 1.015 0 00-.093-.183c-.022-.036-.03-.078-.057-.112l-3.797-4.808h1.318a.998.998 0 00.358-.072c.043-.017.078-.043.118-.066.049-.026.1-.044.147-.08.015-.012.02-.03.035-.042a.913.913 0 00.133-.158c.037-.051.076-.097.103-.151.026-.054.037-.113.054-.171.018-.07.037-.135.04-.206.002-.02.012-.035.012-.054 0-.044-.02-.082-.025-.124a.992.992 0 00-.041-.202c-.024-.068-.058-.124-.094-.184-.022-.037-.031-.08-.058-.113l-2.993-3.76c.005-.001.009-.004.014-.006.033-.012.063-.027.095-.043.032-.015.067-.024.098-.044.03-.02.048-.05.076-.073a.974.974 0 00.326-.47c.02-.064.032-.13.04-.197.004-.036.02-.067.02-.103 0-.03-.013-.052-.015-.08a1.104 1.104 0 00-.112-.383c-.013-.025-.014-.051-.03-.075l-3.388-5.32c-.003-.004-.008-.007-.011-.012-.037-.054-.091-.095-.14-.143-.046-.048-.087-.102-.142-.138-.005-.004-.007-.01-.013-.012-.041-.027-.087-.032-.131-.05-.071-.033-.14-.07-.216-.083-.063-.013-.126-.005-.19-.005s-.126-.008-.19.005c-.077.014-.145.05-.216.083-.043.019-.09.023-.131.05-.005.002-.008.008-.013.012-.054.036-.095.09-.143.138-.048.048-.102.089-.138.143-.003.005-.01.008-.012.013l-2.69 4.224-.992-1.557c-.003-.005-.01-.007-.012-.013-.037-.056-.094-.1-.144-.15-.045-.043-.084-.096-.136-.13-.006-.004-.008-.01-.014-.013-.044-.03-.095-.035-.142-.055-.067-.03-.132-.064-.204-.078-.064-.013-.127-.005-.191-.005-.065 0-.127-.008-.191.005-.072.014-.137.049-.204.078-.047.02-.097.026-.142.055-.006.003-.01.009-.014.013-.052.034-.091.087-.137.13-.05.05-.106.094-.144.15l-.011.013-1 1.569-2.698-4.236c-.003-.005-.01-.008-.012-.013-.037-.055-.092-.097-.14-.145-.047-.047-.087-.101-.141-.136-.005-.004-.008-.01-.013-.012-.042-.027-.09-.032-.133-.051-.071-.032-.138-.068-.214-.082-.064-.013-.126-.005-.19-.005s-.127-.008-.19.005c-.076.014-.144.05-.215.082-.044.019-.091.024-.132.05-.006.003-.008.009-.013.013-.055.035-.095.09-.143.137-.048.048-.102.09-.14.144-.002.005-.007.008-.011.013L6.392 8.766c-.015.024-.016.05-.03.075a.988.988 0 00-.071.188.95.95 0 00-.04.195c-.002.028-.016.05-.016.08 0 .037.018.067.02.103a.926.926 0 00.116.371.893.893 0 00.252.296c.027.023.045.054.075.073.032.02.066.029.098.044.032.016.062.03.095.043.005.002.009.005.014.006L3.912 14c-.027.034-.035.076-.057.113a.942.942 0 00-.095.184.93.93 0 00-.04.2c-.006.044-.026.082-.026.126 0 .019.01.035.01.054.005.07.024.136.043.206.016.058.028.117.054.17.026.055.065.1.1.152.043.057.082.11.135.158.014.013.02.03.035.042.046.036.098.054.147.08.04.023.076.049.118.066a.99.99 0 00.358.072h1.318L2.215 20.43c-.026.034-.035.076-.057.112a1.011 1.011 0 00-.092.183.996.996 0 00-.041.2c-.005.043-.025.08-.025.125 0 .02.01.037.01.056.006.07.024.135.042.202.016.06.029.12.056.174.026.055.064.1.1.15.043.057.083.112.135.159.015.013.022.03.037.044.046.035.098.053.147.08.039.02.074.047.116.062A.981.981 0 003 22.05h5.978l-2.093 2.646c-.027.034-.035.074-.056.11a.95.95 0 00-.095.186 1.032 1.032 0 00-.04.199c-.005.043-.025.08-.025.125 0 .02.01.037.01.057.006.069.024.133.042.2.016.06.029.12.056.177.026.053.063.098.099.146.043.058.083.115.137.16.014.014.02.033.036.044.044.036.096.053.144.08.04.02.076.047.119.064a.984.984 0 00.357.072h7.339v1.667a1 1 0 102 0v-1.667h7.338a.989.989 0 00.358-.072c.042-.016.076-.041.115-.062.049-.028.1-.044.147-.081.016-.012.022-.031.038-.044.052-.046.09-.101.133-.158.037-.05.075-.095.1-.15.028-.055.04-.114.057-.174a.953.953 0 00.04-.202c.002-.02.012-.036.012-.057 0-.044-.02-.082-.025-.124a.921.921 0 00-.04-.2.993.993 0 00-.093-.184c-.022-.036-.03-.078-.057-.112l-2.09-2.646H29a.99.99 0 00.358-.073c.042-.015.076-.041.115-.062.049-.027.1-.045.147-.08.015-.013.022-.031.037-.044.053-.047.092-.102.134-.158.037-.05.075-.096.1-.151.028-.054.04-.114.057-.174z" /></svg>
