<svg xmlns="http://www.w3.org/2000/svg" viewBox="0 0 32 32"><path fill-rule="evenodd" d="M12.01 18.367l7.823 3.944-10.268 4.005 2.446-7.95v.001zm.726-2.356h6.53l1.374 4.468-8.033-4.05.13-.418h-.001zm-1.197-2h9v-4h-9v4zm3.96-8.891c.243-.16.757-.161.999 0L20.864 8h-9.727L15.5 5.12zm9.457 22.586L21.31 15.855a2 2 0 001.23-1.844v-4L22.537 10h.29c1.167 0 1.518-.587 1.622-.937.083-.273.174-.977-.752-1.59v-.001l-6.1-4.022c-.912-.6-2.287-.6-3.198 0L8.304 7.472c-.928.614-.837 1.317-.755 1.59.106.35.455.938 1.622.938h.37l-.002.01v4a2 2 0 001.162 1.81L7.044 27.706A1.001 1.001 0 008 29a.988.988 0 00.388-.09c.02-.005.037-.003.056-.01l13.203-5.15 1.397 4.544a1.004 1.004 0 001.593.477 1 1 0 00.319-1.065z" /></svg>
