<svg xmlns="http://www.w3.org/2000/svg" viewBox="0 0 32 32"><path d="M7.641 4.376c.38-.477 1.186-.477 1.565 0 .454.57 2.718 3.506 2.718 5.32 0 1.723-1.06 3.166-2.5 3.64V15H11.5c3.7 0 5.624-1.356 7.661-2.793 2.207-1.556 4.488-3.165 8.84-3.165a1 1 0 110 2c-3.718 0-5.646 1.359-7.688 2.8-.555.391-1.116.786-1.713 1.158H28a1 1 0 110 2h-2.014l2.706 2.598a1 1 0 11-1.385 1.443L23.098 17h-.794l6.544 10.469c.015.023.016.05.028.074.03.058.05.117.068.182.02.067.036.132.041.202.002.025.015.047.015.072 0 .036-.017.066-.02.102a.984.984 0 01-.043.208 1.01 1.01 0 01-.326.462c-.029.023-.048.055-.08.076-.03.018-.064.026-.095.042-.03.014-.059.029-.092.041a1.002 1.002 0 01-.342.069h-24a1 1 0 110-2h.391L9.82 17H8.9l-4.207 4.034a.999.999 0 11-1.385-1.443L6.01 17H4a1 1 0 110-2h3.424v-1.664c-1.44-.474-2.5-1.917-2.5-3.64 0-1.814 2.263-4.75 2.717-5.32zM19.946 17H18.73l2.084 9.999h5.383L19.946 17zm-6.676 0h-1.177l-5.425 9.999h4.52L13.27 17zm3.417 0h-1.375l-2.083 9.999h5.542L16.687 17zM8.424 6.682c-.813 1.181-1.5 2.448-1.5 3.014 0 .535.195 1.012.5 1.345V9.425a1 1 0 112 0v1.616c.304-.333.5-.81.5-1.345 0-.566-.688-1.833-1.5-3.014zM17.914 3c1.653 0 3 1.346 3 3s-1.347 3-3 3c-1.655 0-3-1.346-3-3s1.345-3 3-3zm0 2a1 1 0 100 2 1 1 0 000-2z" /></svg>
