<svg width="32" height="32" viewBox="0 0 32 32" xmlns="http://www.w3.org/2000/svg">
<path fill-rule="evenodd" clip-rule="evenodd" d="M27.1764 12.867C26.5004 13.559 25.5304 13.815 24.8364 13.912C24.6899 12.8972 24.3756 11.9137 23.9064 11.002L27.9884 10.987C27.9054 11.768 27.6344 12.398 27.1764 12.867ZM21.3584 20.112C20.8474 21.142 20.3324 22.192 19.9544 23.275C19.3564 22.8315 18.633 22.5892 17.8884 22.583H14.2484C13.4987 22.5887 12.7705 22.8344 12.1704 23.284C11.7804 22.192 11.2464 21.138 10.7184 20.101C9.87044 18.442 9.07144 16.876 9.07144 15.466C9.07144 11.31 11.9264 8.408 16.0154 8.408C20.1054 8.408 22.9604 11.31 22.9604 15.466C22.9604 16.882 22.1824 18.451 21.3584 20.112ZM17.1394 28H14.9964C14.5368 28.005 14.0861 27.8724 13.7023 27.6194C13.3185 27.3664 13.019 27.0044 12.8424 26.58C12.7524 26.3644 12.7179 26.1298 12.742 25.8974C12.7661 25.6651 12.8481 25.4425 12.9804 25.25C13.1191 25.0418 13.3077 24.8717 13.529 24.7552C13.7504 24.6387 13.9973 24.5795 14.2474 24.583H17.8874C18.4074 24.583 18.8704 24.825 19.1544 25.249C19.4244 25.649 19.4744 26.135 19.2934 26.579C18.9414 27.442 18.0954 28 17.1394 28ZM4.02744 10.986L8.12444 11C7.65543 11.9124 7.3418 12.8965 7.19644 13.912C6.49644 13.814 5.51844 13.557 4.83844 12.862C4.38144 12.394 4.11044 11.765 4.02744 10.986ZM29.9974 9.917C29.9807 9.66373 29.8683 9.42631 29.6829 9.25287C29.4976 9.07943 29.2533 8.98295 28.9994 8.983H28.9964L22.4644 9.006C21.8828 8.41135 21.2154 7.9071 20.4844 7.51C22.4324 6.63 23.5164 5.075 23.5164 3C23.5164 2.73478 23.4111 2.48043 23.2235 2.29289C23.036 2.10536 22.7817 2 22.5164 2C22.2512 2 21.9969 2.10536 21.8093 2.29289C21.6218 2.48043 21.5164 2.73478 21.5164 3C21.5164 5.9 18.0704 6.333 16.0154 6.333C13.9614 6.333 10.5154 5.9 10.5154 3C10.5154 2.73478 10.4101 2.48043 10.2225 2.29289C10.035 2.10536 9.78066 2 9.51544 2C9.25022 2 8.99587 2.10536 8.80833 2.29289C8.6208 2.48043 8.51544 2.73478 8.51544 3C8.51544 5.075 9.59944 6.63 11.5454 7.51C10.8152 7.90726 10.1485 8.41151 9.56744 9.006L3.01944 8.983H3.01644C2.76262 8.98295 2.51828 9.07943 2.33295 9.25287C2.14763 9.42631 2.03519 9.66373 2.01844 9.917C1.89844 11.73 2.36444 13.192 3.40644 14.26C4.54544 15.427 6.08544 15.802 7.09844 15.92C7.23244 17.653 8.09244 19.358 8.93744 21.012C9.82744 22.756 10.7474 24.558 10.7474 26.292C10.7474 26.328 10.7654 26.357 10.7694 26.392C10.8024 26.712 10.8664 27.029 10.9914 27.335C11.6534 28.955 13.2254 30 14.9974 30H17.1404C18.9124 30 20.4854 28.954 21.1464 27.335C21.2714 27.029 21.3354 26.711 21.3684 26.39C21.3714 26.356 21.3884 26.327 21.3884 26.292C21.3884 24.553 22.2834 22.747 23.1504 21.002C23.9694 19.349 24.8044 17.647 24.9344 15.919C25.9434 15.801 27.4734 15.427 28.6084 14.264C29.6504 13.196 30.1174 11.734 29.9974 9.917Z" />
<path fill-rule="evenodd" clip-rule="evenodd" d="M12.3194 13.367C12.0542 13.367 11.7999 13.4724 11.6123 13.6599C11.4248 13.8474 11.3194 14.1018 11.3194 14.367C11.3194 14.6322 11.4248 14.8866 11.6123 15.0741C11.7999 15.2616 12.0542 15.367 12.3194 15.367C12.5847 15.367 12.839 15.2616 13.0265 15.0741C13.2141 14.8866 13.3194 14.6322 13.3194 14.367C13.3194 14.1018 13.2141 13.8474 13.0265 13.6599C12.839 13.4724 12.5847 13.367 12.3194 13.367ZM19.7114 13.367C19.4462 13.367 19.1919 13.4724 19.0043 13.6599C18.8168 13.8474 18.7114 14.1018 18.7114 14.367C18.7114 14.6322 18.8168 14.8866 19.0043 15.0741C19.1919 15.2616 19.4462 15.367 19.7114 15.367C19.9767 15.367 20.231 15.2616 20.4185 15.0741C20.6061 14.8866 20.7114 14.6322 20.7114 14.367C20.7114 14.1018 20.6061 13.8474 20.4185 13.6599C20.231 13.4724 19.9767 13.367 19.7114 13.367Z" />
</svg>
