<svg width="210" height="302" viewBox="0 0 210 302" fill="none" xmlns="http://www.w3.org/2000/svg">
<g clip-path="url(#clip0)">
<path d="M9.46 226.38C7.98 223.61 6.19 219.48 4.87 213.94C3.55 208.4 3.33 203.99 3.43 200.93C3.52 198.31 2.96 196.07 6.78 196.07L105.08 196.09" fill="url(#paint0_linear)"/>
<path d="M24.68 254.64C22.12 252.41 18.71 248.95 15.18 243.98C11.65 239.01 9.65 234.8 8.51 231.81C7.54 229.24 9.83999 226.06 13.54 224.89L105.08 196.07" fill="url(#paint1_linear)"/>
<path d="M49.9 277.13C46.52 275.72 41.82 273.36 36.42 269.57C31.02 265.78 27.39 262.27 25.1 259.7C23.13 257.49 24.12 253.7 27.27 251.46L105.1 196.08" fill="url(#paint2_linear)"/>
<path d="M200.71 226.38C202.19 223.61 203.98 219.48 205.3 213.94C206.61 208.4 206.84 203.99 206.74 200.93C206.65 198.31 207.16 196.07 203.34 196.07L105.09 196.09" fill="url(#paint3_linear)"/>
<path d="M185.49 254.64C188.05 252.41 191.46 248.95 194.99 243.98C198.51 239.01 200.52 234.8 201.66 231.81C202.63 229.24 200.33 226.06 196.63 224.89L105.09 196.07" fill="url(#paint4_linear)"/>
<path d="M160.27 277.13C163.65 275.72 168.35 273.36 173.75 269.57C179.15 265.77 182.78 262.27 185.07 259.7C187.04 257.49 186.05 253.7 182.9 251.46L105.07 196.08" fill="url(#paint5_linear)"/>
<path d="M127.08 290.79C130.91 290.41 136.37 289.5 143.09 287.4C149.8 285.3 154.68 282.97 157.9 281.14C160.66 279.57 161.19 275.61 159 272.52L105.08 196.08" fill="url(#paint6_linear)"/>
<path d="M83.09 290.79C79.26 290.41 73.8 289.5 67.08 287.4C60.37 285.3 55.49 282.97 52.27 281.14C49.51 279.57 48.98 275.61 51.17 272.52L105.09 196.08" fill="url(#paint7_linear)"/>
<path d="M105.1 244.57C156.551 244.57 198.26 202.861 198.26 151.41C198.26 99.9592 156.551 58.25 105.1 58.25C53.6491 58.25 11.94 99.9592 11.94 151.41C11.94 202.861 53.6491 244.57 105.1 244.57Z" fill="#E6E3CA"/>
<path d="M7.3 36.99L25.35 44.02L24.08 24.68C24.02 23.49 24.6 22.51 25.36 21.95C26.53 21.1 28.21 21.11 29.27 22.56L44.85 43.88C45.88 45.29 45.13 46.89 44 47.71C42.83 48.56 41.2 48.7 40.17 47.29L30.24 33.7L31.09 47.48C31.24 48.61 30.65 49.59 29.85 50.18C29.04 50.77 27.76 50.96 26.73 50.48L14.06 45.58L23.95 59.12C24.98 60.53 24.27 62.1 23.14 62.92C21.97 63.77 20.3 63.94 19.27 62.53L3.74 41.25C2.71 39.84 3.19 38.13 4.36 37.27C5.13 36.72 6.26 36.57 7.3 36.99Z" fill="black"/>
<path d="M78.4 31.48C78.78 32.62 78.31 34.04 76.56 34.62L57.78 40.91C55.89 41.54 54.23 40.68 53.71 39.12L45.51 14.61C45 13.1 45.81 11.41 47.7 10.77L66.49 4.48C68.19 3.91 69.36 4.73 69.76 5.91C70.14 7.05 69.65 8.58 68.04 9.12L51.53 14.65L54.3 22.93L69.96 17.69C71.57 17.15 72.82 18.05 73.21 19.23C73.59 20.36 73.17 21.77 71.51 22.32L55.85 27.56L58.48 35.41L74.99 29.88C76.63 29.34 78.01 30.3 78.4 31.48Z" fill="black"/>
<path d="M113.85 15.41C114.17 24.93 108.35 31.47 99.27 31.77L89 32.11C87.2 32.17 85.66 30.88 85.61 29.28L84.74 3.36C84.69 1.76 86.14 0.419999 87.93 0.359999L98.2 0.00999883C107.28 -0.290001 113.52 5.88 113.85 15.41ZM108.11 15.6C107.89 9.02 103.95 4.71 98.37 4.9L90.49 5.16L91.23 27.1L99.11 26.84C104.69 26.64 108.33 22.18 108.11 15.6Z" fill="black"/>
<path d="M151.93 6.88C153.38 7.25 154.55 8.31 154.14 9.96L147.68 35.5C147.19 37.44 145.3 37.99 143.71 37.58C142.6 37.3 141.58 36.42 141.16 35.44L131.18 12.63L130.69 15.39L126.85 30.58C126.4 32.37 124.75 32.78 123.35 32.42C121.85 32.04 120.64 30.91 121.1 29.12L127.5 3.82C127.99 1.89 129.65 1.22 131.2 1.62C132.41 1.93 133.11 2.62 133.64 3.78L143.84 27.36L144.47 24.07L148.41 8.49C148.77 6.96 150.48 6.52 151.93 6.88Z" fill="black"/>
<path d="M171.84 15.31C173.14 15.95 174.1 17.37 173.29 19.03L161.54 42.82C160.79 44.34 159.07 44.44 157.77 43.8C156.43 43.14 155.53 41.8 156.3 40.24L168.05 16.45C168.87 14.79 170.5 14.65 171.84 15.31Z" fill="black"/>
<path d="M174.98 40.49C176.01 41.29 176.55 42.53 175.95 43.71C174.83 46.95 178 50.35 180.64 52.41C183.4 54.55 188.29 57.21 190.71 54.09C192.64 51.61 189.29 48.5 186 45.5C180.97 40.9 175.44 35.41 180.09 29.41C184.28 24.01 192.21 26.49 197.14 30.32C201.24 33.5 205.57 38.76 204.06 44.54C203.36 46.34 201.17 46.4 199.82 45.36C198.95 44.69 198.43 43.65 198.66 42.69C199.61 39.51 196.31 36.44 193.9 34.57C191.77 32.92 186.93 30.36 184.79 33.12C182.8 35.69 185.87 38.57 189.52 41.85C194.6 46.62 200.34 51.45 195.47 57.72C190.6 63.99 182.35 60.37 177.42 56.54C173.32 53.36 168.15 47.07 170.63 41.1C171.44 39.26 173.6 39.42 174.98 40.49Z" fill="black"/>
<path d="M105.08 196.07L83.3 288.04C82.42 291.76 84.56 295.51 87.92 296.2C91.85 297.01 97.61 297.8 105.08 297.8C112.55 297.8 118.32 297.01 122.24 296.2C125.61 295.51 127.75 291.77 126.86 288.04L105.08 196.07Z" fill="url(#paint8_linear)"/>
<path d="M118.6 155.12C119.66 144.42 128.96 136.24 139.94 136.24C143.64 136.24 147.12 137.2 150.15 138.87C143.29 140.92 138.25 147.21 138.25 154.74C138.25 158.97 139.83 162.83 142.43 165.77C142.43 165.77 138.63 161.02 131.42 157.82C124.21 154.61 118.6 155.12 118.6 155.12Z" fill="#FEFAE0"/>
<path d="M115.14 154.9C116.23 154.79 117.33 154.73 118.44 154.73C128.04 154.73 136.63 159.01 142.43 165.76C147.18 171.29 150.05 178.48 150.05 186.34C150.05 194.2 147.18 201.39 142.44 206.92C142.44 206.92 130.8 200.03 122.59 182.87C115.06 167.14 115.14 154.9 115.14 154.9Z" fill="url(#paint9_linear)"/>
<path d="M118.6 155.12C118.6 136.75 133.5 121.85 151.87 121.85C157.02 121.85 161.88 123.06 166.24 125.15C161.62 114.42 154.23 105.19 145.02 98.26C145.02 98.26 131.31 109.51 124.62 124.29C116.97 141.2 118.6 155.19 118.6 155.12Z" fill="#FEFAE0"/>
<path d="M118.41 151.41C118.41 138.19 122.57 126.34 129.23 116C133.52 109.35 141.43 101.25 144.97 98.3C133.84 89.91 120.04 84.87 105.03 84.86C60.97 84.9 25.26 120.63 25.26 164.71C25.26 208.81 61.01 244.56 105.11 244.56H105.13C131.19 244.56 154.73 233.85 171.64 216.61C141.27 210.44 118.41 183.6 118.41 151.41Z" fill="url(#paint10_linear)"/>
<path d="M95.29 119.28C99.21 117.21 103.35 115.51 107.68 114.23C104.5 107.44 97.61 102.72 89.61 102.72C78.59 102.72 69.65 111.66 69.65 122.68C69.65 127.84 71.63 132.53 74.84 136.08C76.02 134.62 77.25 133.2 78.55 131.85C80.34 129.99 82.26 128.25 84.26 126.61" fill="#DE3E12"/>
<path d="M89.59 129.31C93.2627 129.31 96.24 126.333 96.24 122.66C96.24 118.987 93.2627 116.01 89.59 116.01C85.9173 116.01 82.94 118.987 82.94 122.66C82.94 126.333 85.9173 129.31 89.59 129.31Z" fill="white"/>
<path d="M209.97 200.82L209.96 199.98C209.95 198 209.91 192.75 203.25 192.75H192.17C198.14 180.21 201.49 166.2 201.49 151.41C201.49 98.21 158.21 54.93 105.01 54.93C51.81 54.93 8.53 98.21 8.53 151.41C8.53 166.2 11.88 180.21 17.85 192.75H6.69C0.0399981 192.75 0.0299982 197.97 0.0299982 199.94L0.0199982 200.82C-0.130002 205.13 0.379998 209.8 1.54 214.71C2.59 219.17 4.07 223.24 5.9 226.88C5.83 227.01 5.73 227.12 5.66 227.25C4.74 229.14 4.62 231.18 5.31 232.99C6.9 237.18 9.27 241.52 12.37 245.9C14.98 249.58 17.8 252.83 20.78 255.64C20.42 257.96 21.01 260.23 22.51 261.91C25.7 265.5 29.71 268.99 34.4 272.29C38.53 275.2 42.71 277.57 46.84 279.44C47.47 281.4 48.75 283.02 50.53 284.03C54.97 286.55 60.18 288.75 65.99 290.57C71.02 292.15 75.89 293.22 80.53 293.82C80.75 294.34 80.98 294.85 81.29 295.33C82.67 297.49 84.75 298.96 87.16 299.45C92.55 300.56 98.55 301.12 104.99 301.12C111.43 301.12 117.44 300.56 122.82 299.45C125.22 298.96 127.3 297.49 128.68 295.33C128.98 294.85 129.22 294.34 129.44 293.82C134.08 293.21 138.95 292.14 143.98 290.57C149.79 288.75 154.99 286.55 159.44 284.03C161.21 283.02 162.5 281.41 163.13 279.44C167.26 277.57 171.44 275.19 175.57 272.29C180.27 268.99 184.27 265.49 187.46 261.91C188.96 260.22 189.55 257.96 189.19 255.64C192.16 252.83 194.98 249.59 197.6 245.9C200.69 241.54 203.06 237.19 204.66 232.99C205.35 231.18 205.23 229.14 204.31 227.25C204.25 227.12 204.14 227 204.07 226.88C205.9 223.25 207.38 219.18 208.43 214.71C209.61 209.8 210.13 205.12 209.97 200.82ZM15.18 151.41C15.18 101.88 55.48 61.58 105.01 61.58C154.54 61.58 194.84 101.88 194.84 151.41C194.84 175.19 185.54 196.82 170.4 212.9C162.51 211.05 155.25 207.75 148.87 203.3C151.75 198.13 153.28 192.33 153.28 186.34C153.28 177.99 150.29 169.92 144.86 163.59C144.84 163.57 144.82 163.55 144.81 163.53C142.66 161.1 141.48 157.98 141.48 154.73C141.48 148.85 145.31 143.75 151.01 142.05C152.29 141.67 153.22 140.55 153.37 139.22C153.52 137.89 152.84 136.6 151.67 135.95C148.07 133.96 143.98 132.91 139.85 132.91C136.14 132.91 132.62 133.75 129.46 135.22C134.95 129.07 142.9 125.17 151.78 125.17C156.25 125.17 160.6 126.17 164.7 128.14C165.94 128.74 167.44 128.51 168.44 127.54C169.44 126.58 169.74 125.1 169.19 123.82C164.45 112.8 156.74 103.05 146.89 95.64C146.89 95.64 146.89 95.64 146.89 95.63C134.66 86.41 120.16 81.53 104.94 81.52C59.12 81.56 21.84 118.87 21.84 164.69C21.84 177.75 24.87 190.11 30.26 201.11C20.74 186.89 15.18 169.79 15.18 151.41ZM134.82 154.74C134.82 155.04 134.89 155.33 134.9 155.64C131.2 153.64 127.17 152.31 122.96 151.75C125.33 144.61 131.99 139.58 139.84 139.58C140.47 139.58 141.11 139.61 141.74 139.68C137.43 143.36 134.82 148.78 134.82 154.74ZM146.62 186.34C146.62 190.85 145.53 195.21 143.51 199.17C131.71 188.91 123.85 174.4 122.07 158.33C128.91 159.24 135.23 162.6 139.79 167.9C139.81 167.92 139.82 167.94 139.84 167.96C139.84 167.97 139.85 167.97 139.86 167.97C144.22 173.09 146.62 179.61 146.62 186.34ZM125.44 129.77C129.26 119.28 135.89 109.92 144.84 102.6C150.69 107.37 155.67 113.02 159.44 119.35C156.93 118.8 154.36 118.53 151.77 118.53C141.43 118.52 132.1 122.85 125.44 129.77ZM114.99 151.41C114.99 152.52 115.07 153.61 115.13 154.71C115.13 154.72 115.13 154.72 115.13 154.73C115.13 154.74 115.14 154.75 115.14 154.76C116.64 175.56 126.03 194.74 142.18 206.63C142.3 206.75 142.39 206.89 142.53 206.99C142.63 207.06 142.75 207.09 142.86 207.15C149.37 212.08 156.76 215.95 164.84 218.37C153.24 228.74 138.95 236.17 123.15 239.42C123.12 239.43 123.1 239.43 123.07 239.44C121.74 239.71 120.41 239.95 119.06 240.16C118.86 240.19 118.67 240.22 118.47 240.25C117.28 240.43 116.09 240.57 114.89 240.71C114.57 240.74 114.26 240.79 113.94 240.82C112.81 240.93 111.67 241.01 110.52 241.08C110.17 241.1 109.81 241.14 109.46 241.15C108 241.22 106.52 241.26 105.04 241.26C105.03 241.26 105.02 241.26 105.01 241.26C103.69 241.26 102.38 241.22 101.07 241.16C60.7 239.1 28.48 205.61 28.48 164.74C28.48 122.59 62.77 88.26 104.93 88.22C117.25 88.22 129.06 91.77 139.35 98.51C123.82 111.8 114.99 130.84 114.99 151.41ZM8.02 213.17C6.74 207.78 6.58 203.6 6.67 201.04C6.68 200.67 6.69 200.3 6.69 199.94C6.69 199.77 6.69 199.58 6.69 199.39H21.36C24.64 205.08 28.48 210.41 32.81 215.3L12.46 221.71C11.98 221.86 11.54 222.08 11.09 222.29C10.06 220 8.92 216.98 8.02 213.17ZM24.21 249.7C21.97 247.45 19.83 244.89 17.82 242.05C14.36 237.17 12.5 233.14 11.54 230.62C11.52 230.57 11.54 230.39 11.66 230.14C11.98 229.49 12.9 228.55 14.46 228.06L37.95 220.67C41.8 224.4 45.95 227.81 50.37 230.87L25.25 248.75C24.86 249.02 24.56 249.38 24.21 249.7ZM48.36 270.6C47.97 271.15 47.65 271.73 47.38 272.33C44.8 271.04 41.71 269.29 38.24 266.85C32.91 263.1 29.45 259.69 27.49 257.49C27.21 257.17 27.34 256.54 27.54 256.05C27.59 255.94 27.67 255.84 27.71 255.73C27.95 255.27 28.34 254.71 29.1 254.17L56.43 234.72C60.52 237.11 64.8 239.21 69.24 240.99L48.36 270.6ZM80.03 287.05C76.87 286.57 72.79 285.72 68 284.22C61.32 282.13 56.61 279.81 53.83 278.24C53.26 277.92 53.12 277.23 53.09 276.84C53.03 276.03 53.28 275.17 53.8 274.43L75.73 243.33C80.22 244.76 84.85 245.87 89.6 246.64L80.03 287.05ZM123.09 291.76C122.86 292.13 122.34 292.76 121.5 292.94C118.1 293.64 112.48 294.47 105 294.47C97.52 294.47 91.91 293.64 88.5 292.94C87.66 292.77 87.14 292.13 86.9 291.76C86.36 290.92 86.19 289.84 86.44 288.81L96.23 247.48C99.12 247.74 102.04 247.9 105 247.9H105.01H105.02C107.95 247.9 110.86 247.75 113.75 247.49L123.54 288.81C123.8 289.84 123.63 290.92 123.09 291.76ZM156.17 278.24C153.4 279.81 148.68 282.13 142 284.22C137.21 285.72 133.12 286.57 129.97 287.05L120.4 246.66C125.13 245.91 129.77 244.81 134.29 243.38L156.19 274.43C156.72 275.18 156.97 276.03 156.9 276.84C156.87 277.31 156.71 277.94 156.17 278.24ZM182.51 257.48C180.55 259.68 177.09 263.1 171.76 266.85C168.29 269.29 165.2 271.04 162.62 272.33C162.35 271.73 162.03 271.15 161.64 270.6L140.79 241.05C145.22 239.28 149.5 237.19 153.63 234.77L180.9 254.17C181.77 254.79 182.21 255.49 182.43 255.97C182.65 256.46 182.8 257.15 182.51 257.48ZM192.18 242.05C190.2 244.85 188.02 247.44 185.79 249.7C185.44 249.38 185.14 249.02 184.76 248.75L159.7 230.92C164.08 227.89 168.22 224.47 172.12 220.7L195.54 228.08C197.1 228.57 198.03 229.51 198.34 230.16C198.46 230.41 198.48 230.59 198.46 230.63C197.5 233.15 195.63 237.19 192.18 242.05ZM201.98 213.17C201.08 216.98 199.94 220.01 198.91 222.3C198.46 222.1 198.01 221.87 197.53 221.72L177.2 215.32C181.53 210.43 185.37 205.1 188.65 199.4H203.24C203.26 199.4 203.28 199.4 203.29 199.4C203.29 199.61 203.3 199.83 203.3 200.02L203.32 201.05C203.41 203.6 203.25 207.78 201.98 213.17Z" fill="#231F20"/>
<path d="M66.24 122.69C66.24 128.47 68.39 134.02 72.3 138.32C72.93 139.02 73.83 139.41 74.76 139.41C74.79 139.41 74.82 139.41 74.85 139.41C75.82 139.39 76.73 138.94 77.34 138.19C78.65 136.59 79.77 135.31 80.87 134.17C81.88 133.13 82.99 132.09 84.15 131.05C85.7 132.04 87.53 132.64 89.51 132.64C95.01 132.64 99.49 128.16 99.49 122.66C99.49 122.1 99.41 121.57 99.33 121.04C102.33 119.62 105.4 118.36 108.55 117.44C109.48 117.17 110.25 116.5 110.65 115.61C111.05 114.72 111.04 113.71 110.63 112.83C106.81 104.67 98.53 99.4 89.55 99.4C76.69 99.4 66.24 109.84 66.24 122.69ZM89.5 125.98C87.66 125.98 86.17 124.49 86.17 122.65C86.17 120.81 87.66 119.32 89.5 119.32C91.34 119.32 92.83 120.81 92.83 122.65C92.83 124.49 91.34 125.98 89.5 125.98ZM102.57 112.39C100.35 113.19 98.19 114.15 96.05 115.18C94.29 113.64 92.02 112.67 89.51 112.67C84.01 112.67 79.53 117.15 79.53 122.65C79.53 123.75 79.75 124.79 80.08 125.77C78.67 127.01 77.31 128.27 76.09 129.54C75.73 129.92 75.36 130.31 74.99 130.71C73.63 128.27 72.91 125.51 72.91 122.68C72.91 113.51 80.37 106.04 89.55 106.04C94.65 106.05 99.45 108.45 102.57 112.39Z" fill="#231F20"/>
</g>
<defs>
<linearGradient id="paint0_linear" x1="3.411" y1="211.228" x2="105.085" y2="211.228" gradientUnits="userSpaceOnUse">
<stop offset="0.00128886" stop-color="#818183"/>
<stop offset="0.0299" stop-color="#7A7A7C"/>
<stop offset="0.1501" stop-color="#5F6061"/>
<stop offset="0.273" stop-color="#4C4D4E"/>
<stop offset="0.3992" stop-color="#414243"/>
<stop offset="0.5337" stop-color="#3D3E3F"/>
</linearGradient>
<linearGradient id="paint1_linear" x1="8.2916" y1="225.355" x2="105.085" y2="225.355" gradientUnits="userSpaceOnUse">
<stop offset="0.00128886" stop-color="#818183"/>
<stop offset="0.0299" stop-color="#7A7A7C"/>
<stop offset="0.1501" stop-color="#5F6061"/>
<stop offset="0.273" stop-color="#4C4D4E"/>
<stop offset="0.3992" stop-color="#414243"/>
<stop offset="0.5337" stop-color="#3D3E3F"/>
</linearGradient>
<linearGradient id="paint2_linear" x1="24.0791" y1="236.603" x2="105.085" y2="236.603" gradientUnits="userSpaceOnUse">
<stop offset="0.00128886" stop-color="#818183"/>
<stop offset="0.0299" stop-color="#7A7A7C"/>
<stop offset="0.1501" stop-color="#5F6061"/>
<stop offset="0.273" stop-color="#4C4D4E"/>
<stop offset="0.3992" stop-color="#414243"/>
<stop offset="0.5337" stop-color="#3D3E3F"/>
</linearGradient>
<linearGradient id="paint3_linear" x1="105.085" y1="211.228" x2="206.758" y2="211.228" gradientUnits="userSpaceOnUse">
<stop offset="0.4663" stop-color="#3D3E3F"/>
<stop offset="0.6008" stop-color="#414243"/>
<stop offset="0.727" stop-color="#4C4D4E"/>
<stop offset="0.8499" stop-color="#5F6061"/>
<stop offset="0.9701" stop-color="#7A7A7C"/>
<stop offset="0.9987" stop-color="#818183"/>
</linearGradient>
<linearGradient id="paint4_linear" x1="105.085" y1="225.355" x2="201.878" y2="225.355" gradientUnits="userSpaceOnUse">
<stop offset="0.4663" stop-color="#3D3E3F"/>
<stop offset="0.6008" stop-color="#414243"/>
<stop offset="0.727" stop-color="#4C4D4E"/>
<stop offset="0.8499" stop-color="#5F6061"/>
<stop offset="0.9701" stop-color="#7A7A7C"/>
<stop offset="0.9987" stop-color="#818183"/>
</linearGradient>
<linearGradient id="paint5_linear" x1="105.085" y1="236.603" x2="186.09" y2="236.603" gradientUnits="userSpaceOnUse">
<stop offset="0.4663" stop-color="#3D3E3F"/>
<stop offset="0.6008" stop-color="#414243"/>
<stop offset="0.727" stop-color="#4C4D4E"/>
<stop offset="0.8499" stop-color="#5F6061"/>
<stop offset="0.9701" stop-color="#7A7A7C"/>
<stop offset="0.9987" stop-color="#818183"/>
</linearGradient>
<linearGradient id="paint6_linear" x1="105.085" y1="243.432" x2="160.356" y2="243.432" gradientUnits="userSpaceOnUse">
<stop offset="0.4663" stop-color="#3D3E3F"/>
<stop offset="0.6008" stop-color="#414243"/>
<stop offset="0.727" stop-color="#4C4D4E"/>
<stop offset="0.8499" stop-color="#5F6061"/>
<stop offset="0.9701" stop-color="#7A7A7C"/>
<stop offset="0.9987" stop-color="#818183"/>
</linearGradient>
<linearGradient id="paint7_linear" x1="49.8131" y1="243.432" x2="105.085" y2="243.432" gradientUnits="userSpaceOnUse">
<stop offset="0.00128886" stop-color="#818183"/>
<stop offset="0.0299" stop-color="#7A7A7C"/>
<stop offset="0.1501" stop-color="#5F6061"/>
<stop offset="0.273" stop-color="#4C4D4E"/>
<stop offset="0.3992" stop-color="#414243"/>
<stop offset="0.5337" stop-color="#3D3E3F"/>
</linearGradient>
<linearGradient id="paint8_linear" x1="105.085" y1="297.796" x2="105.085" y2="196.074" gradientUnits="userSpaceOnUse">
<stop offset="0.00128886" stop-color="#818183"/>
<stop offset="0.0299" stop-color="#7A7A7C"/>
<stop offset="0.1501" stop-color="#5F6061"/>
<stop offset="0.273" stop-color="#4C4D4E"/>
<stop offset="0.3992" stop-color="#414243"/>
<stop offset="0.5337" stop-color="#3D3E3F"/>
</linearGradient>
<linearGradient id="paint9_linear" x1="115.137" y1="180.825" x2="150.047" y2="180.825" gradientUnits="userSpaceOnUse">
<stop stop-color="#1F2021"/>
<stop offset="0.2618" stop-color="#232425"/>
<stop offset="0.5076" stop-color="#2E2F30"/>
<stop offset="0.7469" stop-color="#414143"/>
<stop offset="0.9811" stop-color="#5C5C5E"/>
<stop offset="1" stop-color="#5E5E60"/>
</linearGradient>
<linearGradient id="paint10_linear" x1="158.26" y1="269.611" x2="88.6897" y2="148.39" gradientUnits="userSpaceOnUse">
<stop stop-color="#00B9AE"/>
<stop offset="0.9987" stop-color="#3D3E3F"/>
</linearGradient>
<clipPath id="clip0">
<rect width="210" height="301.12" fill="white"/>
</clipPath>
</defs>
</svg>
