<svg xmlns="http://www.w3.org/2000/svg" xmlns:xlink="http://www.w3.org/1999/xlink" viewBox="0 0 104 104"><defs><path id="a" d="M0 0h104v104H0z"/></defs><g fill="none" fill-rule="evenodd"><mask id="b" fill="#fff"><use xlink:href="#a"/></mask><use fill="#E6E3CA" xlink:href="#a"/><g mask="url(#b)" fill="#77844F" opacity=".5"><path d="M52.0074842 66c17.9229803 0 39.6165877 10.55 42.547075 16.91C96.164827 86.405 96.8349384 94.305 97 96.645c.0149684 6.42-4.9158516 11.355-10.9768595 11.355H17.9918278C11.93081993 108 7 103.065 7 97c.1750291-2.695.84514054-10.595 2.46040913-14.09C12.38589561 76.55 34.079503 66 52.0074842 66zM52 13c12.685 0 23 10.315 23 23S64.685 59 52 59 29 48.685 29 36s10.315-23 23-23z"/></g></g></svg>