<svg xmlns="http://www.w3.org/2000/svg" viewBox="0 0 24 24"><path d="M20.502 5C21.902 5 23 6.2 23 7.637v8.726C23 17.8 21.898 19 20.502 19H7.999c-1.124 0-2.532-.673-3.28-1.558l-3.078-3.64c-.855-1.011-.856-2.592 0-3.604L4.72 6.556C5.469 5.67 6.872 5 7.999 5h12.503zm0 2H7.999c-.53 0-1.378.405-1.753.849l-3.077 3.64c-.226.266-.226.756 0 1.022l3.077 3.64c.373.442 1.226.85 1.753.85h12.503c.251 0 .498-.27.498-.638V7.637c0-.37-.244-.637-.498-.637zm-8.844 2.193l.094.083 1.292 1.292 1.294-1.292a1 1 0 011.497 1.32l-.083.094-1.293 1.293 1.293 1.293a1 1 0 01-1.32 1.497l-.094-.083-1.293-1.293-1.293 1.293a1 1 0 01-1.497-1.32l.083-.094 1.293-1.293-1.293-1.293a1 1 0 011.32-1.497z" /></svg>
