<svg xmlns="http://www.w3.org/2000/svg" viewBox="0 0 24 24"><path d="M17.727 19c-1.23 0-2.229-1.026-2.266-2.299v-.138c.036-1.273 1.036-2.3 2.266-2.3 1.063 0 1.951.767 2.198 1.795l.016.101c.003.02.015.035.018.054.024.137.041.275.041.418C20 17.938 18.981 19 17.727 19zm-7.275-7.155c-.789 0-1.403.558-1.704 1.239a4.179 4.179 0 00-2.475-.821c-.591 0-1.153.124-1.666.347L5.61 6.103C5.806 5.454 6.389 5 7.04 5c.831 0 1.504.708 1.505 1.577l-.001 2.056a1.003 1.003 0 001 1.001h4.912c.266 0 .52-.106.708-.293.187-.188.292-.443.292-.708l-.001-2.057C15.456 5.707 16.13 5 16.959 5c.652 0 1.235.454 1.431 1.103l1.004 6.507a4.17 4.17 0 00-1.667-.347c-.924 0-1.774.309-2.475.821-.301-.681-.916-1.239-1.704-1.239h-3.096zM6.273 19C5.02 19 4 17.938 4 16.631c0-.143.018-.281.041-.418.004-.019.016-.034.019-.054l.016-.1c.247-1.029 1.134-1.796 2.197-1.796 1.233 0 2.235 1.031 2.266 2.309v.119C8.508 17.969 7.506 19 6.273 19zm15.617-3.326l-1.538-9.972c-.003-.021-.017-.037-.021-.058-.005-.021 0-.042-.005-.063C19.893 4.061 18.509 3 16.959 3c-1.795 0-3.261 1.39-3.463 3.168-.015.067-.041.13-.041.202v.209l.001 1.055h-2.912l.001-1.055v-.314a.983.983 0 00-.06-.303C10.197 4.283 8.766 3 7.04 3 5.491 3 4.107 4.061 3.674 5.581c-.006.021 0 .042-.005.063-.005.021-.018.037-.021.058l-1.537 9.972a4.442 4.442 0 00-.111.957C2 19.04 3.917 21 6.273 21c2.311 0 4.189-1.89 4.26-4.237 0-.013.007-.023.007-.035v-.038c0-.02.005-.038.005-.059 0-.02-.005-.038-.005-.058v-2.582c0-.036.025-.099.053-.146h2.814c.028.047.052.11.052.147l.002 2.572c-.001.023-.006.044-.006.067 0 .024.006.045.006.069v.132c0 .045.02.083.026.126.167 2.254 1.994 4.042 4.24 4.042C20.083 21 22 19.04 22 16.631c0-.33-.043-.648-.11-.957z" /></svg>
