<svg xmlns="http://www.w3.org/2000/svg" viewBox="0 0 24 24"><path d="M15.15 4c.283 0 .553.119.742.329l1.502 1.657h2.257C20.947 5.986 22 7.06 22 8.382v9.222C22 18.924 20.947 20 19.652 20H4.348C3.054 20 2 18.925 2 17.604V8.382C2 7.06 3.055 5.986 4.35 5.986h2.257L8.11 4.329a.995.995 0 01.74-.33h6.3zm-.443 2H9.294L7.79 7.657a.995.995 0 01-.74.329h-2.7c-.193 0-.351.178-.351.396v9.222c0 .218.156.396.348.396h15.304c.192 0 .348-.178.348-.396V8.382c0-.218-.157-.396-.35-.396h-2.7a1 1 0 01-.741-.33L14.707 6zM12 8.45c2.206 0 4 1.794 4 4s-1.794 4-4 4-4-1.794-4-4 1.794-4 4-4zm0 2c-1.103 0-2 .897-2 2s.897 2 2 2 2-.897 2-2-.897-2-2-2z" /></svg>
