<svg viewBox="0 0 24 24" xmlns="http://www.w3.org/2000/svg">
<path fill-rule="evenodd" clip-rule="evenodd" d="M9.34018 1.524C9.73068 1.51926 10.0882 1.74228 10.2557 2.09507L13.2771 8.45959L14.0197 6.79125C14.1775 6.43674 14.5262 6.20553 14.9142 6.19811C15.3022 6.19069 15.6594 6.40839 15.8307 6.75661L18.34 11.8591C18.5067 11.5851 18.7969 11.4051 19.1219 11.3815C19.4897 11.3549 19.8424 11.5328 20.0395 11.8445L23.8935 17.9395C24.0722 18.2221 24.0978 18.5752 23.9619 18.8807C23.8259 19.1861 23.5462 19.4034 23.2167 19.4597L16.1087 20.6737C15.7452 20.7357 15.377 20.5927 15.1507 20.3015C14.9509 20.0444 14.8904 19.7086 14.9822 19.4016L9.51168 20.9501C9.13833 21.0558 8.73754 20.936 8.48348 20.6427C8.22942 20.3494 8.16795 19.9356 8.32578 19.5812L9.06642 17.9178L2.31445 19.9264C1.94022 20.0377 1.53542 19.9211 1.27783 19.6277C1.02024 19.3343 0.956967 18.9178 1.1158 18.5611L4.37055 11.2525L2.54456 10.4395C2.04002 10.2148 1.81313 9.6237 2.03778 9.11917C2.26242 8.61464 2.85354 8.38774 3.35807 8.61239L5.18417 9.42547L8.4388 2.11711C8.59767 1.76036 8.94968 1.52874 9.34018 1.524ZM6.59199 11.1804C6.5964 11.1713 6.60069 11.162 6.60485 11.1527C6.60899 11.1434 6.61299 11.134 6.61682 11.1247L9.38134 4.91687L12.4029 11.2818C12.5704 11.6346 12.928 11.8576 13.3185 11.8529C13.709 11.8481 14.0611 11.6164 14.2199 11.2596L14.9784 9.55559L17.483 14.6482C17.6542 14.9964 18.0114 15.2141 18.3994 15.2067C18.7873 15.1993 19.136 14.9682 19.2938 14.6137L19.3477 14.4927L21.4015 17.7407L17.6134 18.3877L17.6669 18.2675C17.8247 17.913 17.7631 17.4993 17.5091 17.2061C17.255 16.9129 16.8543 16.7931 16.4809 16.8987L11.0213 18.4442L11.7798 16.7407C12.001 16.2441 11.7849 15.6618 11.2934 15.4297C11.0297 15.3052 10.7385 15.3059 10.4878 15.4083L3.82673 17.3899L6.59199 11.1804Z"/>
</svg>
