<svg fill="none" xmlns="http://www.w3.org/2000/svg" viewBox="0 0 88 88"><path fill-rule="evenodd" clip-rule="evenodd" d="M44 88c24.3 0 44-19.7 44-44S68.3 0 44 0 0 19.7 0 44s19.7 44 44 44zm0-4c22.091 0 40-17.909 40-40S66.091 4 44 4 4 21.909 4 44s17.909 40 40 40z" fill="#A5A6A7"/><path d="M49.688 55.462c-.011.08-.153.205-.233.205H38.5c-.08 0-.22-.124-.232-.204L35.9 37.333h16.2l-2.41 18.129h-.002zM41.5 33.167c0-.287.65-.834 1.667-.834h1.666c1.017 0 1.667.547 1.667.834V34h-5v-.833zM57.333 34h-7.5v-.833c0-2.299-2.243-4.167-5-4.167h-1.666c-2.757 0-5 1.868-5 4.167V34h-7.5a1.666 1.666 0 100 3.333h1.871l2.429 18.562A3.618 3.618 0 0038.502 59h10.951c1.755 0 3.31-1.362 3.539-3.1l2.468-18.567h1.873a1.667 1.667 0 100-3.333z" fill="#A5A6A7"/></svg>
