<svg xmlns="http://www.w3.org/2000/svg" viewBox="0 0 24 24"><path d="M19.002 3C20.104 3 21 3.897 21 5v14c0 1.103-.896 2-1.998 2h-4.991c-.553 0-1-.448-1-1s.447-1 1-1h4.991L19 5h-4.989c-.553 0-1-.448-1-1s.447-1 1-1zm-8.8863 3.8059c.389-.391 1.024-.391 1.415.001l3.772 3.779c.777.779.777 2.047 0 2.827l-3.772 3.781c-.196.195-.453.293-.708.293-.256 0-.511-.097-.707-.292-.391-.39-.391-1.023-.001-1.414l2.774-2.781h-8.889c-.552 0-1-.448-1-1s.448-1 1-1h8.889l-2.774-2.78c-.39-.391-.39-1.024.001-1.414z"/></svg>