<svg fill="none" xmlns="http://www.w3.org/2000/svg" viewBox="0 0 88 88"><path fill-rule="evenodd" clip-rule="evenodd" d="M44 88c24.3 0 44-19.7 44-44S68.3 0 44 0 0 19.7 0 44s19.7 44 44 44zm0-4c22.091 0 40-17.909 40-40a39.852 39.852 0 00-10.255-26.745c-.893-.991-2.82-2.837-2.82-2.837C63.818 7.946 54.37 4 44 4 21.909 4 4 21.909 4 44c0 10.37 3.946 19.818 10.418 26.925a40.252 40.252 0 002.837 2.82A39.852 39.852 0 0044 84z" fill="#ED254E"/><path d="M73.745 17.255c-.893-.991-2.82-2.837-2.82-2.837L14.418 70.925a40.252 40.252 0 002.837 2.82l56.49-56.49z" fill="#ED254E"/></svg>
