<svg xmlns="http://www.w3.org/2000/svg" viewBox="0 0 24 24"><path d="M16.1685 9.0547l1.964 2.945H5.0005v-7h13.132l-1.964 2.946c-.224.336-.224.773 0 1.109zm-10.168 9.896c0 .018-.001.034-.003.049h-.995c-.001-.015-.002-.031-.002-.049v-4.951h1v4.951zm12.202-10.451l2.63-3.945c.204-.307.224-.701.05-1.026-.174-.326-.513-.529-.882-.529h-16c-.553 0-1 .448-1 1v14.951c0 1.149.768 2.049 1.75 2.049h1.5c.981 0 1.75-.9 1.75-2.049v-4.951h12c.369 0 .708-.203.882-.528.174-.325.154-.72-.05-1.026l-2.63-3.946z" /></svg>