<svg xmlns="http://www.w3.org/2000/svg" viewBox="0 0 24 24"><path d="M15 19.0002h3.8c.112 0 .2-.089.2-.203v-9.43l-7-4.201-7 4.201v9.43c0 .114.086.203.197.203H9v-3.889c0-1.164.947-2.111 2.111-2.111h1.778c1.164 0 2.111.947 2.111 2.111v3.889zm3.8 2H14c-.552 0-1-.448-1-1v-4.889c0-.059-.052-.111-.111-.111h-1.778c-.059 0-.111.052-.111.111v4.889c0 .552-.448 1-1 1H5.197c-1.211 0-2.197-.988-2.197-2.203v-9.997c0-.351.184-.676.485-.857l8-4.8c.318-.191.712-.191 1.03 0l8 4.8c.301.181.485.506.485.857v9.997c0 1.215-.987 2.203-2.2 2.203z" fill="#1F2021" fill-rule="evenodd"/></svg>