<svg xmlns="http://www.w3.org/2000/svg" viewBox="0 0 24 24"><path d="M13 18.566v-1.167c0-.552-.447-1-1-1-.553 0-1 .448-1 1v1.167C8.134 18.131 5.868 15.865 5.434 13H6.6c.552 0 1-.448 1-1 0-.553-.448-1-1-1H5.434c.434-2.866 2.7-5.132 5.566-5.567V6.6c0 .552.447 1 1 1 .553 0 1-.448 1-1V5.433c2.866.435 5.132 2.701 5.566 5.567H17.4c-.552 0-1 .447-1 1 0 .552.448 1 1 1h1.166c-.434 2.865-2.7 5.131-5.566 5.566M21 11h-.412c-.46-3.971-3.617-7.128-7.588-7.588V3c0-.553-.447-1-1-1-.553 0-1 .447-1 1v.412C7.029 3.872 3.872 7.029 3.412 11H3c-.553 0-1 .447-1 1 0 .552.447 1 1 1h.412c.46 3.97 3.617 7.127 7.588 7.587V21c0 .552.447 1 1 1 .553 0 1-.448 1-1v-.413c3.971-.46 7.128-3.617 7.588-7.587H21c.553 0 1-.448 1-1 0-.553-.447-1-1-1m-9 0c-.552 0-1 .448-1 1s.448 1 1 1c.553 0 1-.448 1-1s-.447-1-1-1" /></svg>