<svg xmlns="http://www.w3.org/2000/svg" viewBox="0 0 24 24"><path d="M20 3a1.003 1.003 0 011 1v2.182a1 1 0 01-1 1 .987.987 0 01-.96-.807L7.181 18.234V20a1 1 0 01-2 0v-1.182H4a1 1 0 110-2h1.77l2.841-2.843-5.318-5.318a.999.999 0 010-1.414 9.455 9.455 0 016.731-2.789c2.207 0 4.298.748 5.988 2.121l1.613-1.614A.986.986 0 0116.817 4a1 1 0 011-1zm-2.342 7.056a1 1 0 011.286.587 9.546 9.546 0 01-2.188 10.064 1 1 0 01-1.414 0l-3.525-3.524a1 1 0 011.414-1.414l2.77 2.77a7.547 7.547 0 001.07-7.196 1 1 0 01.587-1.287zm-7.634-3.602A7.466 7.466 0 005.46 7.996l4.565 4.565 4.56-4.558a7.455 7.455 0 00-4.56-1.549z" /></svg>
