<svg xmlns="http://www.w3.org/2000/svg" viewBox="0 0 24 24"><path d="M8.3181 1.9996c3.484 0 6.318 2.835 6.318 6.319 0 .737-.125 1.451-.369 2.132l7.44 7.442c.092.092.165.203.216.325.05.121.075.249.076.378 0 .001.001.003.001.005v2.398c0 .552-.448 1-1 1h-3.271375l-.1202176-.0088148C17.5297667 21.9783778 17.4531 21.9566 17.3791 21.9286c-.034-.013-.063-.029-.095-.045-.076-.038-.145-.085-.209-.141-.027-.023-.053-.043-.076-.068-.068-.073-.125-.157-.17-.252-.007-.015-.018-.027-.025-.042-.001-.003-.003-.004-.004-.007l-.548-1.353-1.354-.548c-.02-.009-.033-.025-.052-.035-.082-.039-.157-.088-.226-.148-.026-.023-.052-.043-.076-.069-.067-.073-.124-.156-.168-.25-.008-.015-.019-.027-.025-.042-.002-.003-.004-.005-.005-.008l-.549-1.355-1.354-.547c-.116-.05-.213-.119-.3-.199l-.032-.021c-.075-.075-.129-.168-.178-.264-.01-.019-.027-.034-.035-.053-.006-.014-.005-.03-.01-.045-.04-.108-.068-.221-.069-.338l-.001-.423-1.355-1.414c-.685.246-1.414.375-2.145.375-3.483 0-6.318-2.834-6.318-6.318 0-3.484 2.835-6.319 6.318-6.319zm0 2c-2.381 0-4.318 1.937-4.318 4.319 0 2.381 1.937 4.318 4.318 4.318.684 0 1.336-.154 1.939-.458.016-.008.033-.006.048-.013.066-.029.133-.042.202-.056.06-.012.118-.029.178-.03.064-.002.125.013.188.023.063.011.125.018.185.04.057.022.106.058.159.09.059.036.118.069.169.118.014.012.03.016.043.029l2.111 2.201c.033.035.047.079.074.117.048.066.099.127.129.203.032.078.038.16.049.241.006.045.026.085.026.131v.145l1.123.454c.002.001.003.003.006.004.11.046.209.114.298.197.008.007.02.01.027.018.014.014.021.035.034.051.074.083.14.173.182.275l.004.006.549 1.355 1.355.549c.002.001.004.003.006.004.104.043.196.109.281.185.013.012.032.018.044.03.007.007.009.016.015.022.085.09.154.191.201.304 0 .002.003.003.004.006l.454 1.121h1.599v-.984l-7.484-7.487c-.01-.009-.013-.023-.023-.033-.384-.284-.535-.797-.313-1.238.303-.605.456-1.257.456-1.938 0-2.382-1.937-4.319-4.318-4.319zM6.996 6C7.551 6 8 6.449 8 7c0 .552-.449 1-1.004 1C6.445 8 6 7.552 6 7c0-.551.445-1 .996-1z" /></svg>