<svg xmlns="http://www.w3.org/2000/svg" viewBox="0 0 24 24"><path d="M4.896 13.704l6.747 4.217c.163.102.55.102.715 0l6.746-4.217a1 1 0 011.06 1.696l-6.746 4.217c-.404.253-.911.379-1.418.379-.507 0-1.014-.126-1.417-.38L3.836 15.4a1 1 0 011.06-1.696zm8.522-9.325l6.745 4.215c.532.333.837.844.837 1.403 0 .56-.305 1.07-.837 1.403l-6.745 4.217c-.405.253-.911.379-1.418.379-.507 0-1.014-.126-1.418-.38L3.836 11.4C3.304 11.068 3 10.557 3 9.997s.304-1.07.836-1.403l6.746-4.215c.808-.505 2.027-.505 2.836 0zm-1.777 1.696L5.365 9.997l6.277 3.924c.163.102.552.102.716 0l6.277-3.924-6.277-3.922c-.164-.102-.553-.102-.717 0z" /></svg>
