<svg fill="none" xmlns="http://www.w3.org/2000/svg" viewBox="0 0 32 38"><g filter="url(#filter0_d)"><path d="M2 14C2 6.268 8.268 0 16 0s14 6.268 14 14c0 4.763-2.5 7.986-6.014 11.5L16 34l-7.987-8.5C4.513 22 2 18.763 2 14z" fill="#fff"/><g clip-path="url(#clip0)"><path fill-rule="evenodd" clip-rule="evenodd" d="M14.005 6.143a.75.75 0 01.687.428l2.266 4.774.557-1.252a.75.75 0 011.358-.025l1.882 3.826a.75.75 0 011.275-.01l2.89 4.57a.75.75 0 01-.508 1.14l-5.33.911a.75.75 0 01-.845-.954l-4.103 1.162a.75.75 0 01-.89-1.027l.556-1.248-5.064 1.507a.75.75 0 01-.9-1.024l2.442-5.482-1.37-.61a.75.75 0 11.61-1.37l1.37.61 2.441-5.481a.75.75 0 01.676-.445zm-2.061 7.242a.66.66 0 00.019-.041l2.073-4.656 2.266 4.773a.75.75 0 001.363-.016l.569-1.278 1.878 3.82a.75.75 0 001.358-.027l.04-.09 1.541 2.435-2.841.486.04-.09a.75.75 0 00-.89-1.027l-4.094 1.16.569-1.279a.75.75 0 00-.97-.999L9.87 18.042l2.074-4.657z" fill="#000"/></g></g><defs><clipPath id="clip0"><path fill="#fff" transform="translate(7 5)" d="M0 0h18v18H0z"/></clipPath><filter id="filter0_d" x="0" y="0" width="32" height="38" filterUnits="userSpaceOnUse" color-interpolation-filters="sRGB"><feFlood flood-opacity="0" result="BackgroundImageFix"/><feColorMatrix in="SourceAlpha" values="0 0 0 0 0 0 0 0 0 0 0 0 0 0 0 0 0 0 127 0"/><feOffset dy="2"/><feGaussianBlur stdDeviation="1"/><feColorMatrix values="0 0 0 0 0.121569 0 0 0 0 0.12549 0 0 0 0 0.129412 0 0 0 0.1 0"/><feBlend in2="BackgroundImageFix" result="effect1_dropShadow"/><feBlend in="SourceGraphic" in2="effect1_dropShadow" result="shape"/></filter></defs></svg>
