<svg fill="none" xmlns="http://www.w3.org/2000/svg" viewBox="0 0 32 38"><g filter="url(#filter0_d)"><path d="M2 14C2 6.268 8.268 0 16 0s14 6.268 14 14c0 4.763-2.5 7.986-6.014 11.5L16 34l-7.987-8.5C4.513 22 2 18.763 2 14z" fill="#fff"/><path d="M20.295 19.25c-.922 0-1.672-.77-1.7-1.724v-.104c.028-.954.778-1.725 1.7-1.725.797 0 1.463.576 1.649 1.347l.012.075c.002.015.011.026.013.04.018.104.031.207.031.314 0 .98-.764 1.777-1.705 1.777zm-5.456-5.366c-.592 0-1.052.418-1.278.929a3.135 3.135 0 00-1.856-.616c-.444 0-.865.093-1.25.26l.752-4.88c.147-.486.585-.827 1.073-.827.623 0 1.128.531 1.129 1.183l-.001 1.542a.752.752 0 00.75.75h3.684a.753.753 0 00.75-.75V9.932c0-.652.506-1.182 1.127-1.182.49 0 .926.34 1.073.827l.753 4.88a3.129 3.129 0 00-1.25-.26c-.693 0-1.33.232-1.856.616-.226-.51-.687-.93-1.278-.93h-2.322zm-3.134 5.366c-.94 0-1.705-.797-1.705-1.777 0-.107.014-.21.03-.313.004-.015.013-.026.015-.04l.012-.076c.185-.771.85-1.347 1.648-1.347.925 0 1.676.774 1.7 1.732v.09c-.024.958-.775 1.731-1.7 1.731zm11.713-2.494l-1.154-7.48c-.002-.015-.013-.027-.016-.043-.004-.016 0-.032-.004-.047-.324-1.14-1.362-1.936-2.525-1.936-1.346 0-2.446 1.043-2.597 2.376-.011.05-.03.098-.03.152V10.726h-2.184V9.698a.739.739 0 00-.044-.227c-.216-1.26-1.29-2.222-2.584-2.222-1.162 0-2.2.796-2.524 1.936-.005.015 0 .031-.004.047s-.014.028-.016.043l-1.153 7.48a3.332 3.332 0 00-.083.717c0 1.807 1.438 3.277 3.205 3.277 1.733 0 3.142-1.418 3.195-3.178 0-.01.005-.017.005-.026v-.029c0-.014.004-.028.004-.044 0-.015-.004-.028-.004-.043v-1.937c0-.027.019-.074.04-.11h2.11a.265.265 0 01.04.111v1.929c0 .017-.004.033-.004.05 0 .018.005.034.005.052v.099c0 .034.015.062.02.095.125 1.69 1.495 3.031 3.18 3.031 1.766 0 3.204-1.47 3.204-3.277 0-.247-.032-.486-.082-.717z" fill="#1F2021"/></g><defs><filter id="filter0_d" x="0" y="0" width="32" height="38" filterUnits="userSpaceOnUse" color-interpolation-filters="sRGB"><feFlood flood-opacity="0" result="BackgroundImageFix"/><feColorMatrix in="SourceAlpha" values="0 0 0 0 0 0 0 0 0 0 0 0 0 0 0 0 0 0 127 0"/><feOffset dy="2"/><feGaussianBlur stdDeviation="1"/><feColorMatrix values="0 0 0 0 0.121569 0 0 0 0 0.12549 0 0 0 0 0.129412 0 0 0 0.1 0"/><feBlend in2="BackgroundImageFix" result="effect1_dropShadow"/><feBlend in="SourceGraphic" in2="effect1_dropShadow" result="shape"/></filter></defs></svg>
