<svg xmlns="http://www.w3.org/2000/svg" viewBox="0 0 24 24"><path d="M19 16.531l-3.2 1.077V7.625c0-.052-.022-.097-.03-.147L19 6.391v10.14zM5 7.468l3.2-1.077v9.984c0 .052.022.096.03.146L5 17.608V7.468zm5.2 8.907V6.36l3.626 1.133c-.006.045-.026.085-.026.132V17.64l-3.626-1.133c.006-.045.026-.085.026-.13zM20.583 4.188a.994.994 0 00-.902-.136l-4.892 1.646-5.29-1.653a1.004 1.004 0 00-.618.007l-5.2 1.75A1 1 0 003 6.75V19a.999.999 0 001.319.948l4.892-1.647 5.29 1.653c.202.063.417.06.618-.006l5.2-1.75A1 1 0 0021 17.25V5a.999.999 0 00-.417-.812z" /></svg>
