<svg xmlns="http://www.w3.org/2000/svg" viewBox="0 0 24 24"><path d="M12 2c2.273 0 4.41.89 6.015 2.506 3.313 3.332 3.313 8.753 0 12.085l-.015.015-5.305 5.113a.998.998 0 01-1.39 0l-5.308-5.113C2.67 13.26 2.67 7.837 5.982 4.506A8.429 8.429 0 0112 2zm0 2a6.44 6.44 0 00-4.598 1.915c-2.54 2.555-2.54 6.711 0 9.266L12 19.611l4.604-4.437c2.533-2.556 2.53-6.706-.007-9.259A6.442 6.442 0 0012 4zm0 2.516a4.005 4.005 0 014.002 4c0 2.206-1.795 4-4.003 4a4.005 4.005 0 01-4.002-4c0-2.206 1.795-4 4.002-4zm0 2a2.003 2.003 0 00-2.002 2c0 1.103.898 2 2.001 2a2.003 2.003 0 002.002-2c0-1.103-.898-2-2.002-2z" /></svg>
