<svg width="34" height="24" viewBox="0 0 34 24" fill="currentColor" xmlns="http://www.w3.org/2000/svg"><path d="M6.79 23.968c-1.7-.179-3.256-1.265-4.52-3.159C1.066 19.007.313 16.725.073 14.156-.555 7.419 2.94 1.234 7.374 1.234c3.546 0 6.615 3.975 7.248 9.39.127 1.078.125 2.95-.003 4.049-.473 4.065-2.427 7.527-4.957 8.78a5.036 5.036 0 01-2.872.515zm1.754-4.377c1.339-.553 2.383-1.884 3.026-3.856.286-.875.406-1.67.437-2.871.024-.96.011-1.171-.117-1.939-.352-2.118-1.222-3.8-2.447-4.73-.772-.586-1.09-.693-2.069-.694-.982-.002-1.3.105-2.069.692C3.96 7.222 3.004 9.225 2.774 11.5c-.078.773-.035 2.253.086 2.957.221 1.282.845 2.794 1.516 3.673 1.138 1.49 2.737 2.051 4.168 1.46zm-4.245-4.3c-.227-.476-.454-1.288-.54-1.934-.252-1.885.063-3.513.938-4.844.711-1.083 1.392-1.517 2.371-1.512.461.002.686.058 1.267.314.23.102.129.207-.2.207-.458 0-1.104.277-1.64.703-.586.466-1.357 1.63-1.67 2.518-.483 1.376-.647 3.076-.424 4.39.072.42.044.463-.102.158zm21.705 8.677c-2.892-.304-5.434-3.366-6.393-7.701-.365-1.651-.473-3.907-.27-5.643.634-5.415 3.703-9.39 7.248-9.39 2.314 0 4.532 1.732 5.914 4.62 1.645 3.436 1.916 7.871.716 11.705-.392 1.251-.868 2.267-1.525 3.25-1.545 2.314-3.484 3.39-5.69 3.159zm1.517-4.296c1.101-.377 1.918-1.131 2.647-2.447.33-.595.802-1.99.935-2.768.122-.704.165-2.184.087-2.957-.23-2.275-1.185-4.278-2.532-5.307-.768-.587-1.087-.694-2.069-.692-.98.001-1.296.108-2.069.694-1.224.93-2.094 2.612-2.447 4.73-.127.768-.14.98-.116 1.939.018.732.065 1.278.145 1.708.679 3.632 3.086 5.898 5.42 5.1zm2.016-4.31c.126-.822.155-1.518.093-2.208-.148-1.642-.465-2.638-1.202-3.785-.389-.604-.605-.862-.96-1.144-.535-.426-1.181-.703-1.64-.703-.328 0-.43-.105-.2-.207.582-.256.806-.312 1.268-.314.98-.005 1.66.429 2.371 1.512.875 1.331 1.19 2.959.938 4.843-.088.66-.362 1.604-.583 2.006l-.118.215.033-.215zm-14.783 2.711c0-.024.085-.306.188-.624.262-.806.562-2.305.677-3.38.115-1.079.09-3.374-.048-4.35-.538-3.802-2.236-7.091-4.45-8.623-.267-.185-.486-.356-.487-.38-.002-.079.902-.413 1.532-.566L12.78 0l.273.321c.398.47.831.784 1.543 1.115 1.6.746 3.172.746 4.772 0 .711-.331 1.145-.644 1.543-1.115L21.183 0l.615.15c.63.153 1.534.487 1.532.566-.001.024-.22.195-.488.38-2.203 1.524-3.924 4.846-4.446 8.58-.147 1.053-.148 3.872-.003 4.91.128.907.418 2.22.645 2.917.095.288.172.545.172.57 0 .025-1.003.046-2.228.046-1.225 0-2.228-.02-2.228-.046z"/></svg>
