<svg xmlns="http://www.w3.org/2000/svg" viewBox="0 0 24 24"><path d="M12 2c5.514 0 10 4.486 10 10s-4.486 10-10 10S2 17.514 2 12c0-1.95.639-3.354 1.328-4.581.27-.482.879-.654 1.362-.381.482.27.653.88.382 1.361C4.429 9.543 4 10.594 4 12c0 4.411 3.589 8 8 8s8-3.589 8-8c0-4.072-3.06-7.436-7-7.931v1.386c0 .552-.447 1-1 1-.553 0-1-.448-1-1V3c0-.552.447-1 1-1zM7.0505 9.0333c.282-.474.895-.63 1.371-.347l2.624 1.566c.286-.156.607-.252.955-.252 1.105 0 2 .894 2 2 0 1.105-.895 2-2 2-1.106 0-2-.895-2-2 0-.014.003-.027.003-.04l-2.607-1.556c-.474-.283-.629-.897-.346-1.371z" /></svg>