<svg xmlns="http://www.w3.org/2000/svg" viewBox="0 0 24 24"><path d="M18.798 3C20.012 3 21 3.988 21 5.202v13.599A2.203 2.203 0 0118.798 21H5.203A2.205 2.205 0 013 18.799V5.202C3 3.988 3.989 3 5.203 3zm-3.541 8.87l-4.097 4.78a1.001 1.001 0 01-1.36.15l-2.506-1.88L5 17.214v1.583a.2.2 0 00.203.203h13.595a.202.202 0 00.202-.203v-3.184l-3.743-3.743zM18.797 5H5.204A.2.2 0 005 5.202v9.184l1.493-1.493A.997.997 0 017.8 12.8l2.45 1.838 4.19-4.889a.998.998 0 01.72-.349.962.962 0 01.747.292L19 12.785V5.202A.2.2 0 0018.798 5zM8.8 6.2c1.434 0 2.6 1.166 2.6 2.6a2.602 2.602 0 01-2.6 2.6 2.602 2.602 0 01-2.6-2.6 2.603 2.603 0 012.6-2.6zm0 2a.6.6 0 100 1.2.6.6 0 000-1.2z" /></svg>
