<svg xmlns="http://www.w3.org/2000/svg" viewBox="0 0 32 32"><path d="M16 3c1.209 0 2.231.737 2.622 1.761.831.179 1.547.629 2.061 1.239H24c1.103 0 2 .903 2 2.014v18.973c0 1.11-.897 2.013-2 2.013H8c-1.103 0-2-.903-2-2.013V8.014C6 6.903 6.897 6 8 6h3.317c.514-.61 1.23-1.06 2.061-1.239C13.769 3.737 14.791 3 16 3zm-5.482 5H8v18.987L24 27V8.014l-2.518-.009c.003.055.018.105.018.161V9c0 .553-.447 1-1 1h-9c-.553 0-1-.447-1-1v-.834c0-.057.015-.109.018-.166zM20 21c.553 0 1 .447 1 1 0 .553-.447 1-1 1h-8c-.553 0-1-.447-1-1 0-.553.447-1 1-1zm0-4c.553 0 1 .447 1 1 0 .553-.447 1-1 1h-8c-.553 0-1-.447-1-1 0-.553.447-1 1-1zm0-4c.553 0 1 .447 1 1 0 .553-.447 1-1 1h-8c-.553 0-1-.447-1-1 0-.553.447-1 1-1zm-4-8c-.441 0-.8.299-.8.667 0 .553-.447 1-1 1-.874 0-1.596.584-1.689 1.333h6.978c-.093-.749-.815-1.333-1.689-1.333-.553 0-1-.447-1-1 0-.368-.359-.667-.8-.667z" /></svg>