<svg xmlns="http://www.w3.org/2000/svg" viewBox="0 0 24 24"><path d="M12.002 11a1.001 1.001 0 000 2 1.001 1.001 0 000-2m0 4c-1.654 0-3-1.346-3-3s1.346-3 3-3 3 1.346 3 3-1.346 3-3 3m-3.89.522c.235 0 .467.082.653.242.46.397.983.705 1.554.917a.998.998 0 01.653.937v1.179c0 .112.097.203.218.203h1.624c.118 0 .217-.093.217-.203v-1.101a1 1 0 01.69-.95 5.095 5.095 0 001.667-.918 1 1 0 011.132-.099l.935.532c.107.06.25.028.308-.074l.813-1.386a.178.178 0 00.019-.141.199.199 0 00-.1-.124l-.9-.513a.998.998 0 01-.486-1.064 4.888 4.888 0 000-1.919 1 1 0 01.487-1.064l.9-.512a.2.2 0 00.099-.125.178.178 0 00-.02-.142l-.811-1.384c-.06-.1-.202-.135-.308-.075l-.936.533a1 1 0 01-1.132-.099 5.059 5.059 0 00-1.667-.918 1 1 0 01-.69-.951V5.202c0-.111-.097-.202-.217-.202H11.19c-.12 0-.218.093-.218.202v1.18c0 .418-.261.792-.654.938a5.084 5.084 0 00-1.553.915.995.995 0 01-1.147.112l-1.07-.609c-.102-.057-.25-.027-.308.074l-.813 1.386a.178.178 0 00-.02.141.2.2 0 00.1.125l1.103.628a.997.997 0 01.49 1.043 5.003 5.003 0 000 1.73.998.998 0 01-.49 1.043l-1.103.628a.199.199 0 00-.1.124.178.178 0 00.02.142l.812 1.385c.058.1.2.133.308.074l1.07-.608a.996.996 0 01.495-.131M12.814 21H11.19a2.213 2.213 0 01-2.218-2.203v-.521a7.042 7.042 0 01-.945-.555L7.536 18a2.232 2.232 0 01-3.022-.802l-.812-1.385a2.16 2.16 0 01-.225-1.671 2.186 2.186 0 011.042-1.345l.524-.298a6.932 6.932 0 010-.998l-.524-.299a2.184 2.184 0 01-1.042-1.344A2.164 2.164 0 013.7 8.187l.814-1.386A2.232 2.232 0 017.537 6l.49.279c.3-.21.616-.395.945-.556v-.521C8.972 3.988 9.967 3 11.19 3h1.624c1.222 0 2.217.988 2.217 2.202v.416c.372.166.73.363 1.068.591L16.467 6a2.232 2.232 0 013.022.802l.812 1.385a2.16 2.16 0 01.225 1.671 2.184 2.184 0 01-1.042 1.344l-.31.176a7.172 7.172 0 010 1.243l.31.176c.519.295.889.772 1.042 1.345a2.162 2.162 0 01-.224 1.67l-.814 1.386a2.233 2.233 0 01-3.022.802l-.367-.209a7.125 7.125 0 01-1.068.591v.415A2.213 2.213 0 0112.814 21" /></svg>
