<svg fill="none" xmlns="http://www.w3.org/2000/svg" viewBox="0 0 88 88"><path fill-rule="evenodd" clip-rule="evenodd" d="M40 54.667c-.441 0-.866-.175-1.178-.488l-9.333-9.334a1.665 1.665 0 010-2.356 1.665 1.665 0 012.356 0L40 50.644l16.155-16.155a1.665 1.665 0 012.357 0c.652.65.652 1.705 0 2.356L41.18 54.18a1.662 1.662 0 01-1.179.488z" fill="#0CCE6B"/><path fill-rule="evenodd" clip-rule="evenodd" d="M44 88c24.3 0 44-19.7 44-44S68.3 0 44 0 0 19.7 0 44s19.7 44 44 44zm0-4c22.091 0 40-17.909 40-40S66.091 4 44 4 4 21.909 4 44s17.909 40 40 40z" fill="#0CCE6B"/></svg>
