<svg xmlns="http://www.w3.org/2000/svg" viewBox="0 0 16 16"><g fill="none" fill-rule="evenodd"><path d="M8 11.8A3.804 3.804 0 014.2 8c0-2.095 1.704-3.8 3.8-3.8s3.8 1.705 3.8 3.8c0 2.095-1.704 3.8-3.8 3.8M14 7h-.293A5.806 5.806 0 009 2.293V2a1 1 0 10-2 0v.293A5.806 5.806 0 002.293 7H2a1 1 0 100 2h.293A5.808 5.808 0 007 13.708V14a1 1 0 102 0v-.292A5.808 5.808 0 0013.707 9H14a1 1 0 100-2" fill="#1f2021"/><path class="center" d="M8 6c-1.103 0-2 .898-2 2 0 1.102.897 2 2 2s2-.898 2-2c0-1.102-.897-2-2-2" fill="#00B9AE"/></g></svg>
