<svg xmlns="http://www.w3.org/2000/svg" viewBox="0 0 16 16"><path d="M8 1a1 1 0 011 1v.293A5.806 5.806 0 0113.707 7H14a1 1 0 110 2h-.293A5.808 5.808 0 019 13.708V14a1 1 0 11-2 0v-.292A5.808 5.808 0 012.293 9H2a1 1 0 110-2h.293A5.806 5.806 0 017 2.293V2a1 1 0 011-1zm0 3.2A3.804 3.804 0 004.2 8c0 2.095 1.704 3.8 3.8 3.8s3.8-1.705 3.8-3.8c0-2.095-1.704-3.8-3.8-3.8zm0 1.3c1.379 0 2.5 1.122 2.5 2.5S9.379 10.5 8 10.5A2.503 2.503 0 015.5 8c0-1.378 1.121-2.5 2.5-2.5zm0 2a.5.5 0 10.002 1.002A.5.5 0 008 7.5z" fill="#00B9AE" fill-rule="evenodd"/></svg>
