<svg xmlns="http://www.w3.org/2000/svg" viewBox="0 0 24 24"><path d="M17.5 12a1 1 0 011 1v2.5H21a1 1 0 010 2h-2.5V20a1 1 0 01-2 0v-2.5H14a1 1 0 010-2h2.5V13a1 1 0 011-1zm-7 0c.358 0 .72.02 1.083.062a1 1 0 11-.22 1.988A7.86 7.86 0 0010.5 14c-2.782 0-5.736 1.596-6.238 2.1-.093.287-.211 1.105-.265 1.846.005 0 .059.054.126.054h7.35a1 1 0 010 2h-7.35A2.126 2.126 0 012 17.875c.034-.512.16-2.002.467-2.668C3.022 14 7.119 12 10.5 12zm0-9c2.206 0 4 1.794 4 4s-1.794 4-4 4-4-1.794-4-4 1.794-4 4-4zm0 2c-1.103 0-2 .897-2 2s.897 2 2 2 2-.897 2-2-.897-2-2-2z" /></svg>
