<svg xmlns="http://www.w3.org/2000/svg" viewBox="0 0 24 24"><path d="M17.5005 12c.552 0 1 .448 1 1v.338c.184.058.36.13.529.219l.213-.214c.389-.391 1.023-.392 1.414-.001.391.39.392 1.023.001 1.414l-.214.214c.089.17.161.345.22.53h.337c.552 0 1 .448 1 1s-.448 1-1 1h-.337c-.059.185-.131.361-.22.53l.238.237c.39.39.391 1.023.001 1.414-.196.196-.452.294-.708.294-.256 0-.511-.098-.706-.293l-.239-.238c-.169.088-.345.16-.529.219V20c0 .553-.448 1-1 1-.553 0-1-.448-1-1v-.337c-.185-.059-.361-.131-.53-.219l-.262.262c-.196.195-.452.293-.708.293-.255 0-.511-.098-.707-.293-.39-.391-.39-1.023 0-1.414l.263-.263c-.088-.169-.16-.344-.219-.529h-.337c-.553 0-1-.448-1-1s.447-1 1-1h.337c.059-.184.131-.36.219-.529l-.239-.238c-.39-.391-.39-1.024 0-1.415.391-.39 1.024-.39 1.414 0l.239.239c.17-.089.345-.161.53-.22V13c0-.552.448-1 1-1zm-7.0004 0c.358 0 .721.021 1.083.062.549.061.945.555.884 1.104-.061.549-.558.943-1.104.884-.289-.032-.578-.05-.863-.05-2.782 0-5.736 1.596-6.238 2.101-.093.286-.211 1.104-.265 1.845.005 0 .059.054.126.054h7.35c.552 0 1 .448 1 1s-.448 1-1 1h-7.35c-1.171 0-2.123-.953-2.123-2.125.034-.512.16-2.002.467-2.668C3.0221 14 7.1191 12 10.5001 12zm7.0004 3.167c-.735 0-1.333.598-1.333 1.333s.598 1.333 1.333 1.333 1.333-.598 1.333-1.333c0-.366-.149-.697-.389-.938 0-.001-.002-.001-.002-.002l-.003-.003c-.241-.241-.573-.39-.939-.39zM10.5 3c2.206 0 4 1.794 4 4s-1.794 4-4 4-4-1.794-4-4 1.794-4 4-4zm0 2c-1.103 0-2 .897-2 2s.897 2 2 2 2-.897 2-2-.897-2-2-2z"/></svg>