<svg xmlns="http://www.w3.org/2000/svg" viewBox="0 0 24 24"><path d="M12.0002 12.5998c3.584 0 7.922 2.11 8.508 3.382.322.699.456 2.279.4890068 2.747.0029932 1.284-.9830068 2.271-2.1950068 2.271H5.1982c-1.212 0-2.198-.987-2.198-2.2.035-.539.169-2.119.492-2.818.585-1.272 4.923-3.382 8.508-3.382zm0 2c-2.973 0-6.21 1.75-6.713 2.272-.102.299-.232 1.19-.29 1.999.003.039.092.129.201.129h13.604c.109 0 .198-.09.198-.2-.056-.744-.186-1.63-.287-1.928-.503-.522-3.741-2.272-6.713-2.272zM12 3c2.537 0 4.6 2.063 4.6 4.6 0 2.537-2.063 4.6-4.6 4.6-2.537 0-4.6-2.063-4.6-4.6C7.4 5.063 9.463 3 12 3zm0 2c-1.434 0-2.6 1.167-2.6 2.6 0 1.434 1.166 2.6 2.6 2.6 1.434 0 2.6-1.166 2.6-2.6C14.6 6.167 13.434 5 12 5z"/></svg>