<svg xmlns="http://www.w3.org/2000/svg" viewBox="0 0 24 24"><path d="M8.7655 2.9996c.411 0 .794.253.944.637.094.148.851.6 2.392.6 1.623 0 2.154-.486 2.207-.616.154-.375.52-.621.926-.621h3.179c.297 0 .579.133.769.361.19.229.269.531.214.823-.004.022-.448 2.664 1.29 4.563.159.174.251.398.261.633.0341818.8203636.0482645 1.8976529.0511435 3.0227498l.0001976.8495192c-.0032502 1.7038963-.0267047 3.397731-.0403411 4.375731-.005.43-.01.731-.01.849 0 .618-.482 1.187-1.434 1.693-.928.493-2.133.8361352-3.466.8361352-1.275 0-2.667-.3131352-4.049-1.1081352-2.828 1.627-5.699 1.236-7.514.272-.952-.506-1.434-1.075-1.434-1.693 0-.118-.005-.419-.011-.849-.01363636-.978-.03709091-2.6718347-.04017881-4.375731l.00029301-.8495192c.0030263-1.1250969.01734035-2.2023862.0518858-3.0227498.009-.235.102-.459.261-.633 1.738-1.899 1.294-4.541 1.289-4.567-.052-.292.028-.593.218-.82.19-.226.47-.36.766-.36h3.179zm8.575 2h-1.436l-.008.019-2.894 7.605v5.543c2.763 1.586 5.298.53 5.949.009.002-.151.004-.345.007-.576.024-1.687.077-5.524.004-7.79-1.365-1.669-1.621-3.599-1.622-4.81zm-9.245 0h-1.436c-.001 1.211-.257 3.141-1.622 4.81-.02466667.7553333-.03522222 1.6852222-.03744444 2.6518519l.00000129.834323C5.00360204 14.9695592 5.02678571 16.6356 5.0405 17.5996c.003.231.006.425.008.576.65.521 3.185 1.576 5.948-.009v-5.543l-2.894-7.604c-.003-.007-.005-.013-.007-.02zM16.9842 15c.552 0 1 .448 1 1s-.448 1-1 1h-2c-.552 0-1-.448-1-1s.448-1 1-1h2zm-7.9634 0c.552 0 1 .448 1 1s-.448 1-1 1h-2c-.552 0-1-.448-1-1s.448-1 1-1h2zm1.6407-8.8794l1.338 3.516 1.327-3.486c-.825.124-1.843.111-2.665-.03z" /></svg>