<svg xmlns="http://www.w3.org/2000/svg" viewBox="0 0 32 32"><path d="M24.667 2a1 1 0 011 1c0 1.834-2.253 5.006-5.618 6.57.458.259.89.559 1.29.898a6.26 6.26 0 011.522-.946c1.972-.85 4.17-.65 5.738.523.276.206.426.54.398.884-.167 2.01-1.563 3.917-3.474 4.742a6.373 6.373 0 01-1.237.381c.03.292.047.589.047.888 0 .913-.282 1.984-.89 3.37l-3.114 6.828-.03.059A4.724 4.724 0 0116 30a4.726 4.726 0 01-4.3-2.803l-.03-.059-3.107-6.814c-.613-1.4-.895-2.471-.895-3.384 0-.3.016-.596.047-.889a6.306 6.306 0 01-1.235-.379c-1.914-.826-3.31-2.733-3.476-4.744a1 1 0 01.398-.883c1.567-1.172 3.766-1.372 5.736-.523a6.252 6.252 0 011.524.946c.4-.339.83-.639 1.289-.898C8.586 8.006 6.333 4.834 6.333 3a1 1 0 112 0c0 .609.736 1.869 1.97 3.03 1.663-.965 1.989-1.557 1.989-2.378a1 1 0 112 0c0 1.78-1.016 2.846-2.275 3.676C13.162 8.015 14.514 8.5 16 8.5c1.486 0 2.837-.485 3.983-1.172-1.26-.83-2.275-1.896-2.275-3.676a1 1 0 012 0c0 .821.325 1.413 1.989 2.378 1.234-1.161 1.97-2.421 1.97-3.03a1 1 0 011-1zM16 10.5c-3.492 0-6.333 2.889-6.333 6.44 0 .611.242 1.474.72 2.569l3.07 6.728c.017.03.032.06.045.091A2.73 2.73 0 0016 28a2.728 2.728 0 002.497-1.672c.014-.031.028-.061.045-.091l3.077-6.743c.47-1.08.714-1.943.714-2.554 0-3.551-2.841-6.44-6.333-6.44zm-3.412 4.988a1 1 0 11.001 2 1 1 0 010-2zm6.823 0a1 1 0 110 2 1 1 0 010-2zm7.483-4.146c-.94-.449-2.152-.45-3.24.016-.35.152-.662.359-.951.588a8.454 8.454 0 011.134 2.156c.303-.06.602-.142.894-.268 1.137-.491 1.888-1.536 2.163-2.492zm-18.55.016c-1.086-.468-2.297-.465-3.238-.016.274.956 1.025 2.002 2.164 2.493.29.125.59.207.892.266a8.468 8.468 0 011.135-2.155 4.28 4.28 0 00-.953-.588z" /></svg>
