<svg xmlns="http://www.w3.org/2000/svg" viewBox="0 0 32 32"><path d="M25.273 23.727c-.117 0-.245-.017-.395-.052a.988.988 0 00-.939.268.998.998 0 00-.262.941c.034.14.05.267.05.389A1.73 1.73 0 0122 27a1.73 1.73 0 01-1.727-1.727c0-.474.189-.916.534-1.248.003-.003.004-.008.007-.01.002-.003.006-.003.008-.006.044-.046.066-.1.099-.15.04-.059.088-.11.114-.173.024-.06.027-.125.04-.188.012-.062.035-.123.035-.186 0-.066-.021-.129-.034-.194-.012-.06-.012-.122-.035-.181-.026-.064-.073-.117-.111-.175-.034-.05-.055-.107-.098-.152-.003-.002-.006-.002-.009-.005-.003-.003-.003-.008-.006-.01l-3.39-3.366 1.811-1.825 3.402 3.378c.07.07.157.114.241.16.032.014.055.043.087.056.085.034.177.041.267.051.038.006.072.023.108.023h.002c.047 0 .094-.021.14-.028.08-.012.16-.015.236-.046.069-.029.127-.082.19-.126.046-.034.098-.052.14-.093A1.73 1.73 0 0127 22a1.73 1.73 0 01-1.729 1.729zM10 27a1.73 1.73 0 01-1.728-1.727c0-.114.018-.244.053-.398a1 1 0 00-1.203-1.2 1.774 1.774 0 01-.396.052 1.729 1.729 0 111.246-2.923c.003.004.008.005.011.009l.008.01c.047.046.106.07.16.105.054.035.102.081.16.105.064.027.132.03.2.043.057.011.114.034.173.034l.01.003c.062 0 .12-.026.18-.035.063-.012.127-.014.187-.037.065-.026.118-.073.177-.113.05-.033.104-.053.148-.095l.008-.007c.003-.005.007-.006.01-.009l7.284-7.337c.005-.003.009-.004.012-.007.003-.003.003-.008.008-.01l4.073-4.102c.047-.05.072-.11.108-.166.037-.055.084-.104.108-.165.024-.06.024-.124.037-.188.012-.063.037-.123.037-.188s-.024-.126-.037-.19c-.012-.062-.012-.127-.037-.186-.024-.06-.074-.11-.11-.165-.036-.056-.06-.115-.108-.163a1.72 1.72 0 01-.508-1.223A1.73 1.73 0 0122.002 5a1.73 1.73 0 011.726 1.729c0 .12-.017.248-.05.39a.997.997 0 00.262.938.992.992 0 00.94.269c.148-.035.276-.052.393-.052a1.73 1.73 0 011.729 1.726 1.73 1.73 0 01-1.729 1.728c-.473 0-.914-.188-1.245-.533l-.01-.007-.006-.01c-.046-.045-.104-.066-.155-.101-.057-.037-.108-.085-.169-.11-.049-.02-.102-.021-.152-.034-.075-.018-.148-.042-.224-.043-.046 0-.091.019-.137.026-.08.01-.162.015-.238.046-.058.022-.107.067-.16.102-.055.034-.114.057-.163.103-.003.003-.003.006-.005.01l-.012.006-4.069 4.098-.005.004s0 .002-.002.003L11.22 22.64c-.041.04-.06.093-.092.139-.045.063-.099.122-.127.192-.02.053-.02.11-.031.165-.015.07-.04.14-.04.212 0 .073.025.145.043.216.01.053.01.108.03.16.03.07.084.13.13.195.033.043.05.095.09.134.325.323.505.758.505 1.22A1.73 1.73 0 0110.002 27zM9.36 11.219c-.05-.05-.11-.073-.166-.11-.056-.036-.106-.084-.166-.108-.043-.018-.09-.014-.135-.026-.08-.02-.16-.046-.242-.046-.008 0-.018.005-.028.005a.986.986 0 00-.675.289A1.729 1.729 0 015 10c0-.953.774-1.727 1.727-1.727.118 0 .245.017.392.052a1 1 0 001.205-1.2 1.804 1.804 0 01-.052-.397A1.73 1.73 0 0110 5a1.73 1.73 0 011.726 1.728c0 .474-.188.917-.533 1.245l-.008.013c-.002.003-.005.003-.008.006-.039.038-.057.09-.088.132-.044.063-.095.12-.124.19-.024.057-.026.118-.04.18-.012.065-.036.127-.036.193 0 .065.021.127.034.19.011.063.013.125.036.185.025.066.074.12.114.18.033.047.052.102.092.145.002.003.006.005.01.006.002.005.004.01.008.012l3.39 3.368-1.812 1.824-3.402-3.378zm15.913 7.054c-.651 0-1.27.181-1.822.494l-2.803-2.782 2.758-2.778c.563.33 1.197.52 1.867.52A3.732 3.732 0 0029 10a3.733 3.733 0 00-3.297-3.703A3.733 3.733 0 0022 3a3.732 3.732 0 00-3.727 3.728c0 .65.181 1.27.494 1.822l-2.784 2.803-2.776-2.757c.33-.563.52-1.197.52-1.868A3.732 3.732 0 0010.002 3a3.733 3.733 0 00-3.703 3.297A3.732 3.732 0 003 10a3.73 3.73 0 003.727 3.728c.652 0 1.27-.181 1.822-.492l2.803 2.782-2.758 2.777a3.733 3.733 0 00-1.868-.521A3.73 3.73 0 003 22a3.733 3.733 0 003.298 3.703A3.732 3.732 0 0010 29a3.73 3.73 0 003.726-3.727c0-.652-.181-1.273-.494-1.823l2.784-2.802 2.777 2.758a3.675 3.675 0 00-.521 1.867A3.73 3.73 0 0022 29a3.732 3.732 0 003.703-3.297A3.734 3.734 0 0029 22a3.732 3.732 0 00-3.727-3.727z" /></svg>
