<svg xmlns="http://www.w3.org/2000/svg" viewBox="0 0 32 32"><path d="M16 15.672c2.452 0 5.297 3.484 6.207 5.262 1.742 3.405 1.697 6.036-.125 7.41-1.542 1.16-3.27.516-4.532.044-.591-.221-1.15-.43-1.55-.43-.4 0-.958.209-1.55.43-.736.275-1.631.609-2.555.609a3.19 3.19 0 01-1.976-.653c-1.822-1.374-1.867-4.006-.125-7.41.91-1.778 3.755-5.262 6.207-5.262zm0 2c-1.18 0-3.492 2.352-4.426 4.174-.453.887-1.828 3.862-.451 4.9.62.468 1.405.226 2.628-.232.73-.274 1.488-.556 2.25-.556s1.518.282 2.249.556c1.22.457 2.008.7 2.629.232 1.376-1.037.002-4.013-.453-4.9-.933-1.822-3.246-4.174-4.425-4.174zm-7.59-5.715c.813.634 1.427 1.589 1.726 2.689.3 1.099.254 2.233-.127 3.193-.414 1.045-1.206 1.794-2.172 2.057a2.963 2.963 0 01-.778.103c-.735 0-1.484-.266-2.136-.775-.815-.635-1.428-1.59-1.727-2.69-.3-1.1-.255-2.233.126-3.193.415-1.044 1.206-1.793 2.172-2.056.964-.264 2.028-.018 2.915.672zm18.095-.672c.966.263 1.758 1.012 2.172 2.056.381.96.426 2.094.127 3.194-.299 1.099-.912 2.054-1.727 2.689-.653.509-1.4.775-2.136.775a2.97 2.97 0 01-.779-.103c-.965-.263-1.757-1.012-2.17-2.057-.382-.96-.427-2.094-.128-3.193.298-1.1.912-2.055 1.727-2.69.887-.69 1.952-.933 2.914-.671zM6.28 13.18a.994.994 0 00-.26.034c-.483.132-.732.598-.838.864-.219.552-.239 1.255-.056 1.93.184.676.558 1.273 1.027 1.637.225.177.674.457 1.16.32.484-.131.733-.598.84-.864.218-.552.238-1.256.054-1.931-.183-.675-.557-1.271-1.026-1.636-.185-.144-.52-.354-.9-.354zm19.441 0c-.38 0-.716.21-.9.354-.469.365-.843.96-1.027 1.636-.183.675-.163 1.379.056 1.93.105.267.355.733.838.865.485.127.935-.143 1.161-.32.47-.364.843-.961 1.026-1.637.184-.675.163-1.378-.055-1.93-.106-.266-.356-.732-.838-.864a1.04 1.04 0 00-.26-.034zM11.834 3C13.89 3 15.5 5.196 15.5 8s-1.61 5-3.667 5c-2.056 0-3.667-2.196-3.667-5s1.61-5 3.667-5zm8.333 0c2.057 0 3.667 2.196 3.667 5s-1.61 5-3.667 5C18.11 13 16.5 10.804 16.5 8s1.61-5 3.666-5zm-8.333 2c-.788 0-1.667 1.232-1.667 3s.879 3 1.667 3S13.5 9.768 13.5 8s-.88-3-1.667-3zm8.333 0C19.379 5 18.5 6.232 18.5 8s.878 3 1.666 3c.788 0 1.667-1.232 1.667-3s-.88-3-1.667-3z" /></svg>
