<svg xmlns="http://www.w3.org/2000/svg" viewBox="0 0 32 32"><path d="M27.995 17.91a1.304 1.304 0 00-.754.567l-.062-.013c-.665-.146-1.241-.27-1.73-.018-.196.102-.609.196-1.179-.293a1 1 0 00-1.65.836c-.164-.036-.325-.068-.48-.1-.428-.085-.833-.168-1.132-.289-.18-.073-.173-.496.018-1.257l.008-.035a.985.985 0 00-.73-1.195.972.972 0 00-.796.144c-.718-.996-2.038-1.463-3.296-1.463a1 1 0 100 2c.188 0 1.837.034 1.837 1.226 0 1.41-2.317 1.966-2.72 1.97h-2.894c-.13-.179-.334-.647-.334-1.269 0-4.318 4.764-6.629 5.522-6.72.913 0 3.336 1.138 4.94 1.892l.666.313c.235.11.443.2.655.292-.239.13-.439.316-.576.558-.287.51-.246 1.128-.111 1.536.137.417.52.67.935.67.108 0 .217-.019.326-.054a.986.986 0 00.511-.392.998.998 0 001.317-1.213c-.006-.019-.016-.038-.022-.057.028.016.07.033.097.05 1.431.87 1.696 1.644 1.634 2.313zM7.794 19.985c-2.265-.028-3.245-.2-3.667-.352.034-.034.076-.07.126-.107.828-.624 2.816-.92 5.012-.286.337.1.623.131.886.14.03.21.075.417.133.618a168.876 168.876 0 01-2.193-.009l-.297-.004zm19.605-6.099c-.452-.275-.974-.49-1.634-.762a37.376 37.376 0 01-1.69-.732l-.661-.309C20.82 10.864 18.886 10 17.623 10c-1.477 0-6.556 2.675-7.393 7.391a1.568 1.568 0 01-.408-.07c-2.575-.744-5.296-.5-6.771.607-.678.51-1.05 1.183-1.05 1.897 0 1.927 2.848 2.124 5.767 2.161l.284.004c.332.006 1.483.01 3.44.01 1.856 0 4.437-.003 7.73-.009h.462c.43 0 .856-.307.994-.713.073-.215.058-.452-.003-.692.351.106.713.192 1.07.264.804.163 1.563.315 2.097.786.254.223.817.515 1.738-.058.68-.42.86-.877.873-1.224.106.022.216.045.3.064.699.15 1.3.282 1.79-.09.1-.076.193-.197.266-.334.083-.006.165-.022.246-.047.312-.096.566-.363.667-.675.266-.82 1.076-3.322-2.323-5.385z" /></svg>
