<svg xmlns="http://www.w3.org/2000/svg" viewBox="0 0 32 32"><path d="M20.756 18.375c-1.509 1.644-3.879 2.488-7.045 2.509-.31.002-.584.004-.842.183-.644.356-3.4 1.622-5.185 2.28.158-.287.33-.579.51-.873 2.83-.719 11.927-5.658 12.466-9.032.203-1.263.587-1.313 1.966-1.217.072 2.641-.55 4.712-1.87 6.15m-3.477-6.826c.687-.711.891-.923 1.002-1.079.097-.135.202-.337.32-.583C19.006 9.046 19.51 8 21.463 8c.565 0 .957.174 1.198.53.274.407.342 1.034.206 1.705l-.022-.001c-1.277-.088-3.655-.257-4.159 2.892-.227 1.419-4.894 4.686-8.457 6.412 2.497-3.278 5.562-6.451 7.05-7.989m9.27-2.32l-1.832-1.204c-.03-.019-.065-.022-.096-.038a3.311 3.311 0 00-.302-.575C23.705 6.502 22.691 6 21.463 6c-3.21 0-4.229 2.116-4.664 3.021-.057.117-.1.219-.13.266-.097.119-.393.422-.828.871-2.393 2.475-8.752 9.049-10.746 13.961-.215.532-.059 1.098.39 1.407.163.113.4.162.693.162 1.881 0 6.047-2.064 7.458-2.803l.088-.001a16.984 16.984 0 002.51-.197l.654 1.24-.362.139a1 1 0 00.717 1.868l1.19-.457 2.421.265a1 1 0 10.218-1.988l-2.136-.234-.694-1.314c1.606-.524 2.946-1.345 3.988-2.479 1.73-1.886 2.523-4.521 2.383-7.825l1.843-.948a1.001 1.001 0 00.092-1.725" /></svg>
