<svg xmlns="http://www.w3.org/2000/svg" viewBox="0 0 32 32"><path d="M23.791 18.146c-.67 1.33-1.889 2.287-3.62 2.847-.053.016-.1.028-.152.045 2.033-1.123 2.912-2.487 3.256-3.665a4.5 4.5 0 00-.616-3.841c.44-.788.453-1.731.46-2.585.003-.596.007-1.212.171-1.591.044-.096.225-.307.35-.367.173-.085.552-.074.645-.02l.003.006c0 .012-.008.175-.275.538-1.07 1.452-.403 3.422.133 5.004l.071.209c.201.598.262 2.055-.426 3.42m-10.434 1.425c.301-.261.617-.561.972-.954.097-.108.195-.196.292-.296.16.137.328.261.49.375-.27.209-.59.45-.905.686l-.597.451a5.736 5.736 0 00-.252-.262m6.582-4.346c.433-.142.818-.271 1.167-.418.291.481.49 1.191.25 2.005-.452 1.545-2.273 2.783-5.147 3.563.383-.293.695-.542.887-.72.301-.282.453-.652.425-1.039-.049-.711-.642-1.124-1.164-1.49a8.956 8.956 0 01-.19-.135c1.384-.975 2.715-1.421 3.772-1.766m6.857-4.472c.21-.28.263-.671.132-.997-.005-.012-.533-1.223-.96-1.867l-.016-.028c-.008-.013-.019-.021-.027-.033-.029-.04-.058-.086-.084-.12-.013-.017-.032-.024-.046-.04.005-.04.023-.075.023-.116 0-1.009-1.053-1.549-1.816-1.552h-.006c-1.278 0-1.84.707-1.934 1.312-.02.133-.012.264.017.387-.286.283-.512.6-.625.863-.325.752-.33 1.575-.336 2.371-.005.726-.01 1.477-.303 1.765-.21.206-.835.41-1.496.625-1.243.405-2.967.971-4.757 2.357 0 .002-.004.002-.006.004-.007.005-.01.011-.016.016-.563.438-1.133.954-1.695 1.577-1.056 1.169-1.397 1.203-1.408 1.205-.074-.012-.303-.164-.456-.266-.575-.383-1.444-.963-2.947-.963-1.276 0-2.356.71-2.818 1.852-.41 1.014-.227 2.102.466 2.771a1 1 0 101.39-1.437c-.072-.069-.112-.312-.002-.584.091-.225.337-.602.964-.602.251 0 .462.029.654.07-.656.567-1.013 1.377-.94 2.207.08.93.652 1.745 1.57 2.233a1 1 0 00.94-1.765c-.309-.164-.497-.398-.519-.641-.017-.204.082-.401.281-.557.512-.399 1.155-.65 2.044.302-.48.487-.557.817-.37 1.287.155.385.596.649 1.015.649a.788.788 0 00.11-.007c.468-.054.916-.115 1.346-.183.883.465 1.855.71 2.964.71.17 0 .35-.016.524-.026l.084.483-.239.17a1 1 0 001.158 1.631l.407-.289 1.444.269a1 1 0 10.369-1.964l-1.18-.222-.067-.39c.374-.091.757-.196 1.157-.325 2.227-.719 3.883-2.049 4.791-3.848.908-1.8.914-3.833.535-4.959l-.07-.213c-.283-.831-.64-1.894-.588-2.623.65-.023 1.106-.185 1.342-.499" /></svg>
