<svg xmlns="http://www.w3.org/2000/svg" viewBox="0 0 32 32"><path d="M15.302 8.886c4.626-2.485 9.702.903 11.112 2.287.81.794.887 2.51.852 4.245v.053c.14.197.497.558.7.763.368.37.684.692.863 1.002l1.037 1.803a.997.997 0 01-.045 1.069l-.634.914a1.002 1.002 0 01-1.372.265l-.419-.281a.982.982 0 01-.336.145 7.508 7.508 0 01-1.518.152 8.146 8.146 0 01-2.642-.444c.013.055.024.117.04.154.12.31.615 1.52.615 1.522a.998.998 0 01-.926 1.378h-.96a1 1 0 01-.984-.82l-.192-1.033a8.29 8.29 0 01-1.608-1.273 8.31 8.31 0 01-.747 1.27l.202.62a1.002 1.002 0 01-.855 1.305 6.158 6.158 0 01-.593.032c-.612 0-.9-.131-1.115-.326a1.092 1.092 0 01-.345-.775l.008-.29c.005-.195.022-.74.016-.985-.057-.197-.045-.464.096-1.08-1.374-.083-3.005-.447-4.479-1.473a5.609 5.609 0 01-.488.364l.061.07a.998.998 0 01.243.653v2.205a1.002 1.002 0 01-1.806.593l-.979-1.331a.997.997 0 01-.069-1.07c-.443.208-.928.634-1.256.964l.176 1.048a.997.997 0 01-.986 1.165h-.606a1 1 0 01-.989-.851c-.472-3.127.04-3.72.232-3.943.343-.4 1.252-1.784 1.487-2.324l-.078-.254a47.94 47.94 0 01-.317-1.094c-.706.872-1.509 1.573-2.28 1.927a1 1 0 11-.834-1.819c.974-.446 2.163-1.9 2.766-3.378.002-.004.005-.006.006-.01.518-1.434 3.361-3.574 4.913-3.657.604-.032 1.415.112 2.367.274.8.137 2.285.39 2.666.269zm9.694 3.696c-.909-.891-5.123-3.885-8.782-1.918-.784.42-2 .253-3.915-.076-.732-.125-1.563-.282-1.925-.247-.765.04-2.9 1.703-3.139 2.327-.045.223.033.964.693 3.12.088.29.151.504.172.598.121.567-.37 1.532-.895 2.357.046-.022.091-.042.137-.061.19-.08.407-.154.642-.234.977-.332 2.084-.708 2.827-2.197a.999.999 0 111.789.893c-.073.145-.155.265-.232.397 1.773 1.142 3.887 1.095 5.01.96a6.364 6.364 0 01-.406-1.415 1 1 0 011.976-.308c.228 1.46 1.101 2.454 1.823 3.045a9.28 9.28 0 00-.03-.378c-.06-.574.37-2.354.625-2.923a1.002 1.002 0 011.825.82c-.099.218-.25.816-.353 1.305.355.226 1.382.644 2.66.65a.982.982 0 01.204-.842c.361-.42.991-.468 1.41-.112.026.023.056.047.09.074l-.107-.185c-.065-.101-.357-.396-.55-.591-.688-.695-1.283-1.297-1.283-2.012l.004-.252c.045-2.184-.196-2.692-.27-2.795zm-3.202-1.23c.764-.095 2.543.969 2.86 1.275a.998.998 0 01-.593 1.714 1 1 0 01-1.296 1.428c-1.584-.799-2.122-2.281-1.951-3.321.148-.908.788-1.068.98-1.096z" /></svg>
