<svg xmlns="http://www.w3.org/2000/svg" viewBox="0 0 32 32"><path d="M27.281 13.235c-.423-.005-1.13-.014-1.74-.353a1.001 1.001 0 00-1.285.275c-.085.112-.37.511-.734 1.015-.599.835-1.849 2.577-2.019 2.775-.184.185-.272.394-.384.66-.303.72-.68 1.44-1.65 1.652a1 1 0 00-.756.745c-.092.383-.208.785-.323 1.126-.172-.74-.348-1.679-.348-2.115a1 1 0 00-1-1 .983.983 0 00-.955.78c-.024.002-.046-.005-.07 0-.686.146-2.435.172-3.633.116.093-.238.17-.47.217-.69a.999.999 0 10-1.957-.413c-.203.965-1.437 2.597-2.432 3.827.09-.428.158-.93.158-1.5 0-1.148-.993-2.096-1.953-3.012-.464-.444-1.329-1.269-1.345-1.585 0-.543 1.926-2.192 3.961-2.402 1.455-.16 5.646.706 6.162.875.443.166.828.086 1.2.007.52-.107 1.386-.289 3.31.053 1.038.19 4.021-1.946 4.487-2.699.14-.225.195-.433.205-.616.068-.008.606-.753 1.422.486.24.46.988 1.343 1.567 1.995-.034 0-.069 0-.105-.002m2.293-.565c-.46-.485-1.78-1.986-1.943-2.267-.21-.533-.789-.93-1.273-1.184.616-.205 1.131-.598 1.31-1.26a1.001 1.001 0 00-1.889-.65.771.771 0 01-.12.032c.418-.624.657-1.496.657-2.554a1 1 0 00-1-1 .98.98 0 00-.778.398.982.982 0 00-.59-.244c-.395-.027-.78.233-.949.608A7.879 7.879 0 0122.817 3a1 1 0 10-2 0c0 .12.004.248.011.381-.009-.077-.022-.159-.027-.23a1 1 0 00-1.995.156c.023.288.064.578.121.866a.997.997 0 00-1.037.262 1.001 1.001 0 00.047 1.414c.981.917 2.657 2.245 4.197 2.391-.05.095-.094.203-.124.331-.117.5-.002 1.337.231 1.992-.587.496-1.873 1.305-2.377 1.506-2.18-.364-3.279-.133-3.878-.008-.077.016-.143.032-.2.041-.888-.262-5.152-1.138-6.958-.956-1.799.186-3.872 1.245-4.973 2.56-1.018 1.093-1.045 1.921-.977 2.74.042.514.07.852-.635 1.67a1 1 0 101.514 1.306c.228-.264.401-.507.55-.74-.04.873-.356 2.288-1.273 3.025-.435.35-.565.455-.47 6.043a.998.998 0 00.111.441l.652 1.267a1 1 0 00.89.542h.474a1 1 0 00.883-1.47l-.64-1.206c-.035-1.24-.027-2.659.036-3.152.276-.322.573-.644.867-.95.007.084.014.17.04.255.081.295 1.246 4.147 1.246 4.147a.994.994 0 00.167.323l1.291 1.665c.19.245.48.388.79.388h.48a1.002 1.002 0 00.807-1.592L9.4 26.695a71.614 71.614 0 01-.72-2.483l.393-.476c.806-.972 1.608-1.965 2.25-2.91.612.081 1.412.116 2.21.116.52 0 1.032-.016 1.494-.04.01.327.018.702.025 1.064.015.625.03 1.213.04 1.474-.06.378-.457 2.067-.825 3.55-.053.216-.033.445.06.65l.764 1.7a1 1 0 00.912.59h.501a1 1 0 00.893-1.449l-.668-1.329.448-2.063c.081.725.157 1.531.216 2.276a.996.996 0 00.11.381l.89 1.715c.172.331.515.54.888.54h.516a1 1 0 00.861-1.509l-.907-1.538c-.023-1.615-.02-3.427.021-3.995.318-.535.58-1.35.74-1.93 1.593-.613 2.182-2.01 2.45-2.645.022-.053.042-.1.06-.139.23-.279.76-1.006 2.125-2.907l.254-.353c.763.236 1.465.245 1.856.25h.036c.948.482 1.845.15 2.305-.402.548-.659.538-1.567-.024-2.163" /></svg>
