<svg xmlns="http://www.w3.org/2000/svg" viewBox="0 0 32 32"><path d="M21.227 18.543a.991.991 0 00-.09.24l-.06.26-.782-1.428-.007-.013c.005-.21.109-.633.229-.841a1 1 0 00-1.733-.998c-.09.155-.253.53-.37.977a3.254 3.254 0 01-.483-.161c-.544-.212-1.237-.472-2.225-.267-.221-.854-.66-1.521-.886-1.777a.997.997 0 00-1.404-.085 1.006 1.006 0 00-.093 1.41c.105.122.615.9.506 1.666-.066.46-.358.85-.893 1.196a1 1 0 00-.3.318c-1.26-2.296-1.473-3.815-1.062-4.354 3.367-4.41 6.125-2.411 8.14-.951.81.587 1.394 1.013 2.067.903.566-.091 1.385-.318 2.252-.558.783-.218 2.094-.581 2.355-.582.268.057.899.45 1.342.756-1.45.536-5.491 2.36-6.503 4.289M6.34 19.51c.182-.191.363-.383.542-.574.84-.9 1.704-1.816 2.653-2.273l.016.076c-.427 1.667-1.825 2.433-3.211 2.77m23.384-6.191c-.231-.283-1.92-1.564-2.92-1.777-.564-.126-1.4.082-3.307.61-.685.19-1.39.386-1.86.48-.18-.103-.503-.337-.75-.516-1.9-1.378-6.35-4.604-10.904 1.356-.247.324-.403.69-.495 1.083-1.678.479-2.944 1.816-4.066 3.014-.927.992-1.802 1.927-2.698 2.184a1 1 0 00.153 1.953c.368.046.79.073 1.246.073 2.066 0 4.818-.566 6.372-2.524.38.772.822 1.528 1.269 2.223a.997.997 0 00.875.516h1.8a1 1 0 001-1 .987.987 0 00-.88-.975l-.002-.015a3.609 3.609 0 001.098-1.595c.696-.3 1.033-.17 1.547.033.368.144.832.325 1.414.325l.028-.002 1.484 2.71a1 1 0 00.877.519h2.01a1 1 0 100-2h-.104l.14-.616c.805-1.251 4.738-3.115 5.533-3.314.859-.165 1.3-1.351 1.306-1.364.257-.706.007-1.167-.166-1.381" /></svg>
