<svg xmlns="http://www.w3.org/2000/svg" viewBox="0 0 32 32"><path d="M27.25 13.95c-.352-.04-2.13.295-2.593.847-.33.295-2.86 1.997-3.663 2.26-.317.105-.529.307-.68.618-.003-.013-.01-.03-.015-.042.058-.14.146-.34.265-.603.072-.156.113-.267.12-.286.16-.528-.123-1.13-.652-1.29-.532-.162-1.072.095-1.232.623l-.056.125c-.07.154-.128.286-.183.41-.279-.064-.669-.189-1.209-.41a3.462 3.462 0 00-.413-1.399 1 1 0 00-1.77.932c.16.305.393.755-.187 1.543-.03-.043-.054-.089-.09-.129a161.257 161.257 0 00-2.024-2.197c-.033-.035-.078-.05-.114-.078-.064-.049-.125-.104-.198-.135a1.133 1.133 0 00-.438-.102 1.002 1.002 0 00-.736.35c-2.002 2.331-3.53 3.33-4.91 3.751.463-.51.93-1.067 1.404-1.635 1.032-1.23 2.942-3.516 3.622-3.247.313.13.668.092.947-.1 1.3-.896 4.25-.5 6.622-.182 1.657.223 3.084.415 4.088.23.432-.078 2.223-.619 2.735-1.002.04-.032.104-.08.223-.21.18.31.521.506.896.49.064.14.125.284.18.414.061.147.128.305.2.47a1.157 1.157 0 00-.14-.017m2.547.311c-.331-.515-.561-1.06-.764-1.54-.285-.675-.6-1.408-1.184-1.835l-.115-1a1.002 1.002 0 00-.765-.86 1.007 1.007 0 00-1.067.428c-.444.681-1.015 1.506-1.227 1.752-.341.17-1.505.564-1.877.633-.694.125-2.102-.063-3.463-.246-2.657-.357-5.646-.759-7.605.265-1.832-.3-3.563 1.782-5.385 3.962-1.112 1.328-2.634 3.146-3.417 3.203a1 1 0 00.062 1.997l.396.006c2.139.033 4.522.065 7.728-2.879-.082.265-.197.5-.352.682a1.04 1.04 0 00-.198.207c-.176.258-.5.736.178 3.227a.999.999 0 00.966.737h.61a1 1 0 00.178-1.985 11.32 11.32 0 01-.106-.548 3.38 3.38 0 00.7-.216c.066-.029.195-.09.35-.17.611.931 1.5 2.265 1.64 2.473a.997.997 0 00.832.446h.655a1 1 0 100-2h-.12c-.299-.446-.63-.947-.933-1.405.557-.49.996-.973 1.3-1.455.57.225 1.16.41 1.722.485.143.392.369 1.002.73 1.967h-.492a1 1 0 100 2h1.535c.405 0 1.087-.168 1.378-1.21l.311.934c.137.408.52.684.95.684h.655a1 1 0 00.066-1.998 393.94 393.94 0 01-.86-2.613c1.204-.668 2.709-1.687 3.195-2.118.22-.108.866-.282 1.136-.317.188.054.555.192.645.245.563.434 1.294.19 1.736-.216.52-.478.63-1.17.276-1.722" /></svg>
