<svg xmlns="http://www.w3.org/2000/svg" viewBox="0 0 32 32"><path d="M26.843 13.52c-1.723.808-3.042.438-3.845-.015a1 1 0 00-.983 1.743 5.826 5.826 0 002.282.715c-.415 1.231-1.475 3.142-3.53 4.37-.028-.035-.044-.076-.077-.107a1 1 0 00-1.413.066c-.53.582-.666 1.494-.602 2.466-.274-.762-.458-1.302-.488-1.45.004-.185.197-.799.406-1.289a1.001 1.001 0 00-1.841-.783c-.133.31-.565 1.38-.565 2.071 0 .034 0 .08.013.16-.684.082-1.712.141-3.205.03a2.72 2.72 0 00.279-.977c.12-1.79-.868-3.92-4.002-4.523a1.005 1.005 0 00-1.171.793 1 1 0 00.793 1.171c1.622.312 2.469 1.173 2.385 2.425-.06.862-2.022 1.997-3.418 2.486a.995.995 0 00-.611.606.994.994 0 00.085.855l1.616 2.671h-.09c-.666-.452-2.338-2.438-2.606-3.102.052-.162.295-.479.566-.69a1.002 1.002 0 00.11-1.49c-1.53-1.584-2.155-2.948-1.858-4.055.397-1.474 2.463-2.546 4.264-3.057 1.509-.43 6.15-.223 7.81-.107.186.01.373-.026.537-.113 1.53-.808 2.979-1 2.99-1.003a.997.997 0 00.874-.904c.049-.14.23-.47.332-.65.154-.279.282-.509.363-.725.098.055.205.1.322.137.325.097.574.03 1.073-.107.182-.049.399-.109.632-.164.794.192 2.776 1.873 2.747 2.434 0 0-.037.047-.174.111m2.025-.836c-.595-1.745-3.574-3.99-4.927-3.685-.225.05-.44.106-.632.158a5.02 5.02 0 01-.002-.85l.013-.17c.12-1.588.124-3.34-.763-4.305a1.99 1.99 0 00-1.483-.65 1.267 1.267 0 00-.442.098c-.573-.278-1.37-.485-1.971.068-.854.78-.487 2.113 1.374 5.025.074.626.166 1.334.284 2.148-.05.1-.12.217-.188.342-.135.242-.251.458-.344.657-.636.138-1.671.423-2.778.971-1.338-.085-6.288-.354-8.22.196-1.446.411-4.895 1.668-5.647 4.462-.437 1.624.135 3.385 1.7 5.243-.313.407-.598.948-.598 1.564 0 1.194 3.16 5.05 4.425 5.05h3.244a.998.998 0 00.996-1.088c-.074-.85-.784-2.049-2.42-2.235l-.838-1.384a10.79 10.79 0 001.68-.96 25.24 25.24 0 003.2.225c1.019 0 1.745-.08 2.259-.156.36 1.031.937 2.588 1.86 4.96a.999.999 0 00.932.637h2.728a1 1 0 00.985-1.173c-.248-1.4-1.054-1.938-1.861-2.106-.39-.948-.686-2.215-.758-3.107 3.787-1.644 5.353-4.997 5.736-6.838a7.1 7.1 0 001.28-.45c1.106-.518 1.556-1.533 1.176-2.647" /></svg>
