<svg xmlns="http://www.w3.org/2000/svg" viewBox="0 0 32 32"><path fill-rule="evenodd" clip-rule="evenodd" d="M13.998 20.696c-.779.035-1.443.046-2.025.055-1.643.024-2.78.042-3.948.605.04-.712.124-1.376.253-1.996.647.082 1.26.132 1.817.132 4.07 0 5.824-2.022 6.538-3.361.648-1.22.833-2.556.693-3.567.984-.452 1.943-1.293 2.4-2.986.337-1.26.931-1.5 1.522-1.57a1.01 1.01 0 01.756.224c.121.11.134.207.132.279a.955.955 0 00.15.524c-.514.11-1.019.325-1.43.712-.587.552-1.136 1.605-.584 3.482-.493 4.269-3.65 7.348-6.274 7.467zm-3.24-5.83c1.308-1.136 3.443-1.556 4.61-1.762.015.649-.145 1.685-.818 2.589-1.05 1.41-3.004 1.994-5.653 1.727.45-1.01 1.066-1.861 1.861-2.552v-.002zm14.56-4.762c0-.02-.009-.038-.01-.058-.03-.796-.592-1.634-1.243-2.12a2.367 2.367 0 00-.714-1.171c-.607-.555-1.503-.836-2.343-.735-1.645.199-2.727 1.22-3.215 3.037-.323 1.204-.95 1.744-2.315 1.994l-.259.046c-1.289.225-3.973.694-5.774 2.259C6.98 15.5 5.828 18.846 6.02 23.31a1 1 0 001.668.7c1.351-1.214 2.04-1.225 4.316-1.26.598-.01 1.283-.02 2.084-.056l.183.503-.209.134a1.001 1.001 0 001.08 1.685l.515-.331 1.21.22a.994.994 0 001.162-.803 1 1 0 00-.803-1.163l-.987-.18-.184-.507c2.96-1.164 5.783-4.525 6.224-8.98.002-.015.006-.031.007-.048.004-.045.013-.087.017-.132.068-.814.423-1.397.732-1.67.216-.191.868-.32 1.246-.313.008 0 .015-.004.023-.004.078 0 .151-.02.226-.037.053-.012.108-.012.158-.032.083-.034.155-.09.226-.145.031-.023.07-.034.098-.061l.004-.006c.05-.05.08-.114.12-.174.035-.053.08-.1.104-.157l.004-.006c.027-.066.026-.135.04-.202.01-.06.034-.114.034-.175v-.006z" /></svg>
