<svg xmlns="http://www.w3.org/2000/svg" viewBox="0 0 32 32"><path d="M27.461 13.734c-.388 0-.842.117-1.368.253-.53.137-1.239.316-1.804.326a.984.984 0 00-.228-.35.999.999 0 00-1.414.018 4.1 4.1 0 00-.248.3c-.383.491-1.28 1.643-2.87 2.356-.424.191-.717.322-1.756 4.466l-.01-.065c-.35-1.97-.263-3.279.26-3.889a1 1 0 00-1.52-1.3c-.118.138-.205.295-.298.448-.618.162-1.794.31-3.106.11.178-.83.145-1.68-.119-2.533a1.001 1.001 0 00-1.911.595c.256.82.173 1.604-.252 2.397-.675 1.26-2.025 2.152-2.684 2.495l-.004.001-.003.002a2.857 2.857 0 01-.253.12c-.527.017-.782.437-1.268 1.241-.15.246-.415.684-.688 1.105.127-.706.38-1.999.477-2.463.15-.18.464-.529.706-.794 1.382-1.527 1.954-2.16 1.252-2.913-.559-.604-.678-2.287-.63-2.853a1.584 1.584 0 00-.407-1.217c-.424-.46-1.112-.685-2.1-.685-.26 0-.596-.328-.849-.687.135.016.28.026.436.026h.111c.736 0 1.31.264 1.771.48.498.231 1.016.471 1.59.235 1.484-.606 3.842-.123 5.253.164.524.107.938.191 1.254.216.625.048 1.365-.03 2.151-.115.706-.075 1.437-.152 1.96-.116.343.023.941.265 1.52.498 1.04.42 2.226.9 3.28.706.868-.153 1.584-.71 2.097-1.254l.038.051c.135.181.326.31.543.368.208.056.711.277.881 1.118.095.466.271.823.444 1.09a.617.617 0 01-.234.05zm-6.492 4.41c.144-.08.29-.16.423-.243l1.345.93-1.768-.688zm3.656 1.982c.128.087.221.148.265.175.038.08-.017.287-.075.327-.123.012-.179-.098-.207-.157a.977.977 0 00.017-.345zm4.94-7.288c-.158-.182-.292-.339-.353-.639-.325-1.604-1.346-2.268-1.962-2.528l-.344-.46.29-.907A.999.999 0 0026.244 7h-.78a.998.998 0 00-.973 1.232l.233.976c-.326.453-.875 1.046-1.38 1.135-.5.09-1.433-.29-2.185-.592-.756-.305-1.469-.592-2.129-.638-.7-.055-1.519.037-2.31.123-.662.07-1.347.143-1.782.11-.193-.015-.59-.096-1.01-.182-1.57-.323-4.159-.85-6.17-.148-.07-.029-.147-.067-.233-.107-.587-.274-1.445-.667-2.697-.665-.185.005-.379-.033-.577-.07-.417-.08-.988-.187-1.59.126-.21.11-.87.55-.596 1.673.25 1.023 1.43 2.932 3.15 2.932.234 0 .395.017.503.037-.009.647.046 2.21.69 3.4-.242.282-.564.637-.792.888-.866.958-1.032 1.15-1.119 1.465-.005.018-.427 2.042-.589 3.02l-.104.081c-.655.502-1.752 1.343-1.08 2.358.346.524.993.72 1.347.788.204.04.41.06.611.06.573 0 1.121-.16 1.561-.46.611-.419 1.267-1.452 2.06-2.758l1.455 2.691c.175.323.513.525.88.525h2.157c.545 0 .99-.437 1-.982.016-.84-.317-1.887-1.932-2.245a83.524 83.524 0 01-.516-2.33c.122-.122.237-.243.343-.363.225-.257.417-.52.592-.786a10.11 10.11 0 003.3.142c-.09 1.191.105 2.351.211 2.95l.027.161c.141.83.984 2.448 1.24 2.924a.997.997 0 00.88.53h2.171a1.003 1.003 0 00.996-1.097c-.106-1.107-.77-1.713-1.465-2.016.168-.668.342-1.332.505-1.92l2.515.98c.077.296.222.59.43.85a2.17 2.17 0 002.027.806c.854-.132 1.531-.809 1.728-1.724.192-.897-.137-1.77-.837-2.225a366.691 366.691 0 01-2.986-2.058c.133-.134.256-.26.366-.384 1.071.25 2.274-.049 3.202-.29.31-.08.735-.189.87-.189 1.43 0 2.25-1.152 2.34-1.285.333-.498.254-1.04-.238-1.61z" /></svg>
