<svg xmlns="http://www.w3.org/2000/svg" viewBox="0 0 32 32"><path d="M26.591 11.654c-1.34-.052-2.592 1.026-3.674 3-.01.016-.436.81-.804 1.781a11.768 11.768 0 01-.01-.858l.066-.06a.999.999 0 10-1.3-1.52c-.216.184-.503.47-.642.774-.057.124-.095.423-.112.817-.663.293-1.394.636-2.107.973l-.56.264c-.035-.84-.414-1.747-1.2-2.283a1 1 0 10-1.126 1.652c.264.181.4.69.312.954-.144.428-.352.623-.613.766a.963.963 0 00-.124.063c-.839.397-1.703.481-2.3.228-.75-.494-.817-1.393-.808-1.76.02-.893.46-1.76 1.07-2.109 1.148-.658 2.87-.903 4.534-1.14.92-.13 1.871-.266 2.756-.473 1.863-.433 3.706-1.056 4.763-1.525.085.045.168.093.267.112a1.003 1.003 0 001.112-.571.992.992 0 001.033.173c.137.152.355.408.552.652-.365.096-.848.092-1.085.09m-21.96 9.033c.053.333.237.573.515.936.06.078.15.196.24.322-.357-.114-.713-.394-.978-.79-.209-.313-.82-1.429.041-2.673 1.163-1.677 3.69-2.305 5.177-2.534a4.973 4.973 0 00-.033.406l-.325.188c-3.584 2.07-4.823 3.007-4.637 4.145m23.66-11.436c-.22-.217-.63-.62-1.229-.674-.026-.003-.049.008-.075.008-.343-.37-.79-.665-1.358-.566-.613.1-.947.57-1.15 1.084-.056.024-.116.033-.168.068-.277.18-2.253 1.007-4.816 1.605-.8.187-1.666.31-2.584.441-1.85.263-3.765.536-5.246 1.382-.51.293-.944.728-1.285 1.245-1.436.118-5.633.7-7.575 3.498-1.05 1.517-1.075 3.403-.06 4.922.732 1.1 1.858 1.74 2.99 1.74.208 0 .417-.023.623-.068.837-.179 1.141-.695 1.25-.987.331-.902-.297-1.784-.803-2.448.485-.424 1.57-1.126 3.226-2.089.181.366.4.71.685.994-.045.298-.024.633.156.946.242.422.695.664 1.242.664h3.253c.445 0 .834-.222 1.043-.594.071-.127.236-.422.113-.984a60.127 60.127 0 002.34-1.068c.448-.212.904-.427 1.342-.629.135 1.202.42 2.424.918 2.958a1 1 0 00.731.317h1.627a1 1 0 00.996-.91c.014-.16.058-.993-.506-1.563a1.499 1.499 0 00-.34-.259c.21-.977.988-2.962 1.986-4.03.356-.38.704-.6.956-.6h.003c.765-.003 2.571.02 3.317-1.452.552-1.087-1.523-2.876-1.603-2.95" /></svg>
