<svg xmlns="http://www.w3.org/2000/svg" viewBox="0 0 32 32"><path d="M27.948 11.509c-.03.078-.16.199-.302.3l-.257-.185c-.635-.455-.85-.608-1.174-.644-.927-.093-2.516.639-3.865 2.507-.213-.047-.55-.193-.713-.262-.319-.137-.549-.237-.832-.237-.814 0-1.056.688-1.362 1.558-.209.594-.643 1.829-1.059 2.111-.44.298-.559.705-1.324 3.348l-.067.233c-.072-.311-.14-.594-.202-.855l-.138-.579a.96.96 0 00-.06-.278 7.496 7.496 0 01-.165-.963c0-.004 0-.006-.002-.01l.001-.007c-.004-.041-.027-.074-.036-.113-.02-.092-.038-.183-.08-.262-.009-.015-.023-.024-.032-.039a.96.96 0 00-.214-.255c-.01-.009-.023-.012-.034-.019a1.017 1.017 0 00-.297-.161c-.054-.017-.114-.013-.17-.021-.072-.011-.139-.032-.215-.028-.004 0-.005.003-.009.003l-.007-.001c-.559.053-5.268.049-7.594-1.494a1.002 1.002 0 00-1.509.542c-.475 1.553-1.084 2.965-1.738 4.064.642-1.656.79-2.874.18-4.191-.276-.597-1.19-3.322-.258-4.78.471-.738 1.436-1.112 2.866-1.112.507 0 .938.073 1.394.151 1.474.254 3.001.515 6.886-1.228.44-.197 1.441-.053 2.324.072.768.109 1.564.225 2.31.19.584-.025 1.085-.124 1.515-.293.028.006.053.016.083.023 1.11.498 3.341 1.162 4.83 1.604.625.187 1.1.326 1.204.362.093.062.27.449.122.949m-.756-3.228l-.438-.13a7.68 7.68 0 00.772-.432c.463-.301.596-.92.296-1.384a.986.986 0 00-.686-.434.99.99 0 00-.435-1.277.999.999 0 00-1.353.413 8.458 8.458 0 01-.498.84.987.987 0 00-.702-.946.971.971 0 00-.63.038c-.006-.061 0-.113-.007-.176a.997.997 0 00-1.955-.156.99.99 0 00-1.165-.566.992.992 0 00-.584.449l-.199-.381a33.634 33.634 0 00-.328-.621 1.003 1.003 0 00-1.358-.396.987.987 0 00-.429.501.988.988 0 00-1.26.146 1 1 0 00.052 1.413l.11.104c.573.542 1.125.992 1.666 1.393-1.175-.168-2.38-.323-3.318.098C11.413 8.27 10.247 8.07 9.01 7.86c-.494-.085-1.053-.181-1.73-.181-2.157 0-3.688.684-4.55 2.036-1.705 2.665.11 6.655.127 6.695.345.746.328 1.459-.69 3.714-.16.357-.185.411.434 5.665.114.967.242 2.062.251 2.21a1 1 0 001 1h.352c.293 0 .568-.145.758-.368a1.04 1.04 0 00.223-.825 11.688 11.688 0 01-.053-.843l.333 1.286c.113.442.511.75.967.75h.352a.997.997 0 00.86-.491.997.997 0 00.017-.99c-.344-.624-.956-3.916-1.35-6.738-.005-.039-.027-.069-.037-.106.65-1.114 1.146-2.306 1.485-3.242 1.512.67 3.33.987 4.837 1.13-.097 1.028-.27 2.701-.377 3.721l-1.63 5.429a.998.998 0 00.958 1.287h.353a1 1 0 00.983-.815c.596-3.183 1.85-4.858 2.32-5.488a5.6 5.6 0 00.205-.29l.03.156c.416 2.212.606 5.027.613 5.395-.01.26.08.516.254.711.191.211.461.331.745.331l.048-.001.444-.021a1.003 1.003 0 00.923-1.234c-.427-1.768-.537-3.628-.266-4.523.297-.983.558-1.884.782-2.658.29-1 .587-2.03.734-2.408.814-.694 1.264-1.951 1.6-2.902.757.278 1.887.521 2.558-.454.85-1.238 1.68-1.685 2.001-1.799l.351.252c.572.408.791.558 1.026.638.416.137.8-.015 1.118-.183.36-.188 1.227-.724 1.495-1.624.404-1.362-.087-2.786-1.145-3.311-.163-.08-.417-.159-1.527-.49z" /></svg>
