<svg xmlns="http://www.w3.org/2000/svg" viewBox="0 0 32 32"><path d="M25 15h-6.022c-.055-.514-.48-1-1.277-1h-3.4c-.798 0-1.224.486-1.279 1H7v-2.8h18V15zm-.5 10h-5.522c-.055-.514-.48-1-1.277-1h-3.4c-.798 0-1.224.486-1.279 1H7.497A.495.495 0 017 24.497V22h18v2.497c0 .282-.22.503-.5.503zm.5-8v3h-6.022c-.055-.512-.48-1-1.277-1h-3.4c-.798 0-1.224.488-1.279 1H7v-3h18zM16 5.165l8.39 5.035H7.61L16 5.166zm12.515 5.177l-12-7.2a1.002 1.002 0 00-1.03 0l-12 7.2A1.001 1.001 0 004 12.2h1v12.298c0 1.209.86 2.22 2 2.451V28a1 1 0 102 0v-1h13.958v1a1 1 0 102 0v-1.047A2.502 2.502 0 0027 24.497V12.2h1a1 1 0 00.515-1.857z" /></svg>
