<svg xmlns="http://www.w3.org/2000/svg" viewBox="0 0 32 32"><path d="M22.733 11.987a2.662 2.662 0 01-.587-.315c.168-.458.273-.953.295-1.484.08-1.877.949-1.877 1.32-1.877.78 0 1.27.776 1.283 1.02 0 .177.042.345.12.49-1.233.115-2.043.85-2.431 2.166m-5.958 8.962c-1.028.178-2.29.045-3.625-.095a63.856 63.856 0 00-.963-.097c.176-.189.329-.396.467-.613 2.827-.037 4.81-.685 6.038-1.986.948-1.006 1.402-2.355 1.382-4.105.364-.204.682-.447.966-.714.384.267.837.494 1.31.637-.796 4.238-3.361 6.59-5.575 6.973m-.947-5.779c.51-.156 1.06-.244 1.593-.328.207-.033.415-.073.623-.11-.078.878-.335 1.553-.807 2.053-.706.75-1.95 1.19-3.681 1.32.563-1.567 1.007-2.55 2.272-2.935m11.128-6.445c-.343-1.206-1.64-2.414-3.195-2.414-1.006 0-1.82.371-2.39 1.046a.466.466 0 01-.368-.442.996.996 0 00-1.083-.91.999.999 0 00-.91 1.082c.087 1.01.672 1.772 1.538 2.113a6.429 6.429 0 00-.105.902c-.05 1.138-.646 1.95-1.773 2.414-.411.168-.97.257-1.562.351-.572.091-1.22.194-1.861.39-2.334.708-3.032 2.657-3.592 4.223-.43 1.201-.726 1.952-1.372 2.217-.594.243-1.918.238-4.848-1.174a1 1 0 10-.868 1.803c.613.295 1.184.546 1.717.753-.557.15-1.121.346-1.69.6a1.001 1.001 0 00.813 1.828c2.65-1.178 5.132-.916 7.534-.664 1.275.134 2.485.248 3.632.134l.382 1.048-.21.134a1 1 0 101.08 1.683l.516-.33 1.208.22a.994.994 0 001.164-.804.999.999 0 00-.803-1.163l-.987-.18-.393-1.078c3.103-1.282 5.478-4.866 5.978-9.259.16-1.407.597-1.443 1.023-1.443.36.004.576.031.812.066.207.03.4.056.62.064a.984.984 0 00.732-.279 1 1 0 00.307-.72c0-.743-.403-1.676-1.046-2.21" /></svg>
