<svg xmlns="http://www.w3.org/2000/svg" viewBox="0 0 32 32"><path d="M25.969 13.917c-.226.027-.841.19-1.392.344v-.033a1 1 0 10-2 0c0 .56.005.945.015 1.216a60.946 60.946 0 01-2.013 1.563 1 1 0 00-.39.656c-.47-.266-.897-.51-1.204-.688.147-.619.246-1.042.272-1.247a.997.997 0 00-.856-1.117 1.004 1.004 0 00-1.126.855c-.026.177-.156.712-.257 1.138l-.011.045a3.9 3.9 0 01-.534.101c.024-.692-.094-1.183-.15-1.367a1.001 1.001 0 00-1.916.574c.017.056.305 1.094-.477 2.537a.984.984 0 00-.357-.452c-1.85-1.286-2.3-3.165-2.302-3.178a1.003 1.003 0 00-.713-.754 1.01 1.01 0 00-.998.286c-2.02 2.177-3.581 3.261-4.653 3.801 1.646-2.216 4.787-4.383 6.133-5.178a.972.972 0 00.19-.147c2.133-2.085 4.83-2.434 8.02-1.044.24.106.39.164.556.171.083.01.27.044.512.087 2.166.386 2.772.42 3.213.186.063-.025.175-.053.312-.082a.986.986 0 00.97.815 1 1 0 00.866-.499l.145-.25.244-.423c.097.173.18.326.232.428.023.048.065.08.095.121.263.502.66 1.347.906 1.912-.57-.274-.93-.425-1.332-.377m3.459.185c-.122-.247-.235-.472-.281-.579-.036-.082-.793-1.823-1.276-2.57-.932-1.756-1.405-1.883-1.613-1.93a1.044 1.044 0 00-.855.194c-.137.108-.228.204-.595.814-.616.057-1.518.194-2.016.385-.427.04-1.644-.213-2.124-.3-.274-.049-.44-.078-.556-.095l-.062-.026c-5.158-2.248-8.533-.156-10.131 1.363-.892.541-6.815 4.253-7.882 8.085a1.002 1.002 0 00.77 1.25c.382.072 2.044.222 4.89-1.889-.006.05-.024.095-.024.146v2.483c0 .25.094.491.263.675l.518.566a1 1 0 00.738.324h.92a1 1 0 100-2h-.44v-1.26c.635-.162 1.443-.398 2.014-.655.066.06.12.12.19.178l-.175.71c-.093.383.047.787.36 1.03l2.314 1.788c.175.136.39.21.612.21h.94a1 1 0 100-2h-.6l-.443-.345a7.662 7.662 0 001.123-1.857 7.837 7.837 0 001.32-.169c.07.512.214 1.437.503 3.185a1 1 0 00.987.837h.928a1 1 0 001-1 .985.985 0 00-.824-.964c.09-.187.212-.422.352-.677l.708.395-.022.052a1.002 1.002 0 00.919 1.395 1 1 0 00.919-.606c.012-.027.293-.684.465-1.363.189-.749-.241-1.399-.675-1.88 1.07-.808 1.644-1.27 1.897-1.633.399-.12 1.233-.352 1.59-.438.14.058.354.163.495.231.54.265.87.423 1.216.39.083-.015.21.008.356.017.235.016.438.03.616.03.39 0 .666-.064.92-.302a1.04 1.04 0 00.323-.743c0-.294-.081-.466-.572-1.452" /></svg>
