<svg xmlns="http://www.w3.org/2000/svg" viewBox="0 0 32 32"><path d="M25.836 12.07c-.387.264-.62.42-1.141.007a.999.999 0 10-1.242 1.566c.11.087.215.151.32.22-.137.897-.5 2.395-.8 2.988-.647 1.277-1.883 2.298-2.211 2.501a.995.995 0 00-.301.204c-.025.025-.04.057-.062.084a1.017 1.017 0 00-.144.214c-.02.04-.025.084-.038.127a.935.935 0 00-.048.235c-.001.02-.011.036-.011.054 0 .215-.036.544-.072.897-.036.352-.066.664-.085.938l-1.246-2.339a1.004 1.004 0 00-1.354-.412.992.992 0 00-.518.901 6.942 6.942 0 00-1.534.21c-2.042.522-2.975-.614-3.066-.733a.998.998 0 00-.78-.419.987.987 0 00-.806.363c-.172.208-.693.841-.855.923-.356.04-.737.116-1.134.243.066-.162.112-.332.134-.51.052-.417-.01-1.044-.597-1.67-1.131-1.212-1.628-2.235-1.364-2.805.338-.73 1.899-1.128 2.677-1.078.342.016.997.103 1.688.195 2.57.344 4.626.573 5.732.16 1.265-.47 2.372-.235 3.179-.06.674.145 1.31.28 1.839-.159.176-.147.468-.48.45-1.073-.031-.986.2-2.01.352-2.689.093-.414.17-.757.164-1.054a.992.992 0 00.94-.453c.038-.057.058-.099.09-.153l.209.184c.509.454.99.881 1.448 1.431.256.308.579.501.878.65-.293.036-.51.186-.691.311m2.807-1.334c-.281-.338-.664-.512-1.002-.665-.15-.067-.396-.18-.455-.242-.553-.664-1.114-1.163-1.656-1.645l-.26-.224c-.133-.186-.276-.707-.401-1.339-.002-.06.012-.118-.001-.179-.013-.066.04-.123.07-.148.468-.192.725-.71.579-1.208a.984.984 0 00-.952-.702c-.017-.243-.03-.473-.03-.666a1 1 0 10-2 0c0 .014.014.456.069 1.092-.952-.434-1.041-1.796-1.041-1.809a1 1 0 10-2 0c0 .787.426 2.934 2.34 3.7.05.085.129.25.235.556-.596-.347-1.196-.615-1.591-.566a1.012 1.012 0 00-.683.406c-1.081 1.492.383 2.792 1.04 3.365l-.058.254c-.135.604-.325 1.45-.384 2.378-.941-.199-2.444-.482-4.184.168-.726.272-3.354-.08-4.767-.269-.768-.103-1.431-.19-1.86-.21-1.121-.053-3.747.423-4.586 2.235-.65 1.406-.072 3.092 1.719 5.01.038.04.059.07.068.075-.07.2-.474.54-1.206 1.012-.263.171-.47.315-.576.414a1.01 1.01 0 00-.255.387C3 26.885 3 27.038 3 27.25c0 .093 0 .288.336 1.948a1 1 0 00.98.802h.634a1 1 0 00.972-1.238l-.363-1.483c.86-2.313 2.002-3.769 3.393-4.379.306 1.44.347 1.613.35 1.613v-.004c.034.161.508 2.517.53 2.61l.303.998c.036.12.095.232.172.331l.925 1.172c.19.24.48.38.786.38h.839c.405 0 .77-.244.924-.619a.996.996 0 00-.217-1.089l-1.04-1.036-.37-3.6.206-1.46c.84.371 1.993.586 3.483.206.109-.027.214-.046.319-.065-.286.911-.746 2.431-1.524 5.041-.08.265-.045.552.095.792l.784 1.336a1 1 0 00.862.494h.76a1 1 0 00.79-1.615l-.687-.882 1.142-3.264.247-.452 3.029 5.683c.174.326.514.53.883.53h.794a1.001 1.001 0 00.856-1.516c-.875-1.453-1.84-3.108-2.127-3.673.14-1.359.023-1.86-.073-2.064-.037-.212.04-.97.082-1.377.02-.193.037-.374.052-.546.798-.58 1.94-1.709 2.63-3.069.4-.79.792-2.357.974-3.474.54-.11.959-.373 1.19-.53 1.229-.049 1.728-.77 1.89-1.097.315-.63.246-1.42-.168-1.919" /></svg>
