<svg xmlns="http://www.w3.org/2000/svg" viewBox="0 0 32 32"><path d="M24.898 10.933a1.486 1.486 0 00-1.003.562c-.561.706-.805 2.117-.174 6.714.04.305-.235 1.912-1.457 3.08-.611.586-1.357.95-2.224 1.106.378-.354.745-.72 1.075-1.122 1.755-2.141 1.849-4.563 1.163-6.012a3.042 3.042 0 00-.511-.747c.844-1.294.812-3.171.783-4.536l-.007-.447c-.006-.51.098-.795.197-.892.065-.062.16-.06.176-.06.465.048.917-.055 1.34-.193a1 1 0 00.392 1.257.95.95 0 00.297.108c.083.397.073.965-.047 1.182M15.99 22.41a1.013 1.013 0 00-1.155-.361c-.212.048-1.171.143-2.03.209.323-.604.824-1.32 1.108-1.508a1 1 0 10-1.107-1.666c-.264.176-.631.566-.994 1.042-.837-.48-1.796-.418-2.653-.354-.868.059-1.418.077-1.696-.211-.253-.262-.64-1.091-.371-3.702.34-3.323 1.909-6.14 4.3-7.724 1.487-.984 3.156-1.37 4.35-1 2.143.658 1.388 5.264 1.14 6.776a2.643 2.643 0 01-.018.112.983.983 0 00-1.207.125 1 1 0 00-.016 1.414c.292.298.943.782 2.097.782.647 0 1.463-.168 2.452-.591.095.06.198.19.28.363.403.85.293 2.43-.902 3.888-.914 1.115-2.054 2.013-3.422 2.689a1.078 1.078 0 00-.156-.283M26.476 8.307a4.294 4.294 0 00.21-1.406 1.001 1.001 0 00-.85-.934c-.582-.088-1.156.13-1.713.34-.354.136-.792.31-.975.287a2.247 2.247 0 00-1.722.537c-.6.528-.896 1.343-.883 2.423l.008.465c.029 1.409.069 3.34-.892 3.79a6.878 6.878 0 01-.784.312c.363-2.221 1.204-7.746-2.544-8.897-1.782-.545-4.04-.082-6.043 1.245-2.893 1.917-4.783 5.266-5.185 9.186-.28 2.716.006 4.35.923 5.299.946.977 2.234.888 3.273.813.582-.04 1.172-.073 1.497.099-.242.59-.366 1.167-.226 1.603.175.54.663.88 1.243.855.106-.004.792-.043 1.547-.105-.04.25.005.503.187.76.164.233.459.439.874.439.134 0 .28-.021.439-.071a14.258 14.258 0 002.307-.954l.158.942c.003.018.014.032.017.048.007.03.007.06.017.09l.265.83a1 1 0 001.862.11l.62.122a1 1 0 10.38-1.963l-.642-.124c1.808-.185 3.038-.976 3.816-1.725 1.626-1.565 2.18-3.781 2.042-4.785-.473-3.45-.368-4.66-.276-5.061a.743.743 0 00.055-.013c.643-.182 1.125-.688 1.359-1.427.32-1.012.15-2.363-.364-3.13" /></svg>
