<svg xmlns="http://www.w3.org/2000/svg" viewBox="0 0 32 32"><path d="M26.038 12.689a.996.996 0 00-1.358 1.24c-.857.479-2.227 1.073-3.532 1.162a1.01 1.01 0 00-.597.253c-.7.626-2.153 1.683-3.068 1.855-.025.005-.042.017-.066.024.24-.532.405-1.067.459-1.354a.999.999 0 10-1.965-.37c-.058.308-.369 1.144-.642 1.482-.056.068-.111.16-.165.264-.596.034-1.291.003-1.864-.056.117-.744-.01-1.581-.62-2.521a.999.999 0 10-1.677 1.087c.636.98.326 1.505-.503 2.705a.498.498 0 01-.028.04c-.026-.513-.185-.758-.505-.955-1.23-.757-1.144-1.314-1.047-1.958.034-.21.057-.4.057-.561a1 1 0 00-.999-1h-.001a1 1 0 00-1 1c0 .074-.019.16-.033.259-.03.197-.067.449-.073.734-.678 1.332-1.587 1.9-2.29 2.118.13-.211.261-.416.362-.573.359-.565.587-.926.714-1.214 1.324-3.017 3.387-3.58 4.62-3.917l.194-.056c.258-.04 1.288.059 2.116.133 2.01.182 4.51.408 5.898.015l.643-.185c.929-.267 2.87-.826 4.297-1.144a.994.994 0 00.35.993 1 1 0 001.404-.168l.77-.978c.285.278.559.555.712.724.035.392.087.918.457 1.29.033.033.092.097.167.179l-1.187-.547zm3.704.344s-.784-.87-1.131-1.243c-.011-.073-.013-.15-.02-.22a2.811 2.811 0 00-.07-.465c-.063-.223-.119-.418-1.298-1.555V9a1.001 1.001 0 00-1.786-.619l-.463.59c-1.067-.032-3.135.49-6.459 1.447l-.638.183c-1.028.294-3.521.067-5.169-.082-1.607-.147-2.34-.206-2.798-.076l-.22.06c-1.368.374-4.215 1.15-5.924 5.042-.071.163-.347.595-.57.944-.973 1.529-1.677 2.634-.79 3.389.166.142.378.237.615.296-.056.399-.127.94-.224 1.697v.002a1.019 1.019 0 00.05.434c.008.026.01.052.02.076l.42 1.004A1 1 0 004.21 24h.839a1 1 0 100-2h-.01c.425-.554.845-1.078 1.027-1.27l.32-.151c.632-.296 1.316-.635 1.957-1.148-.046.343-.105.73-.165 1.078a1 1 0 00.319.917l2.595 2.32a1 1 0 00.666.254h1.048a1 1 0 000-2h-.666l-.93-.83c.172-.537.51-1.045.877-1.575.109-.158.223-.324.335-.498.596.095 1.344.155 2.064.16a32.68 32.68 0 00-.308 1.685.904.904 0 00-.013.156V23a1 1 0 001 1h1.048a1 1 0 100-2l-.018-.3c.99-.671 1.677-1.894 2.058-2.58l.035-.065a6.15 6.15 0 00.91-.372c.057.137.14.262.251.364l3.653 3.32c.05.047.114.07.17.105l.627 1.042a1 1 0 00.857.486h1.049a1 1 0 000-2h-.484l-2.523-4.204c.057-.292.137-.696.2-1.024 1.517-.422 2.856-1.157 3.535-1.655l.793.365a1 1 0 00.987-.086l1.258-.872a1 1 0 00.173-1.492z" /></svg>
