<svg xmlns="http://www.w3.org/2000/svg" viewBox="0 0 32 32"><path d="M11.9998 17.077c3.911 0 8.82 2.277 9.452 3.598.359.748.508 2.45.5450064 2.953C21.9998 24.969 20.9468 26 19.6528 26H4.3478c-1.295 0-2.348-1.031-2.348-2.298.04-.578.19-2.279.549-3.027.632-1.321 5.541-3.598 9.451-3.598zm0 2c-3.509 0-7.264 2.014-7.694 2.539-.085.196-.246 1.322-.309 2.16.003.087.162.224.351.224h15.305c.191 0 .347-.134.347-.298-.059-.764-.221-1.89-.351-2.164-.384-.447-4.139-2.461-7.649-2.461zm10.7499-2.0774c2.689 0 6.319 1.625 6.846 2.769.26.565.368 1.743.4020034 2.223.0019966 1.139-.8660034 2.008-1.9330034 2.008h-3.053c-.552 0-1-.447-1-1 0-.552.448-1 1-1h2.98c-.043-.531-.124-1.088-.19-1.325-.504-.461-2.877-1.675-5.052-1.675-.552 0-1-.447-1-1 0-.552.448-1 1-1zM22.75 8c1.93 0 3.5 1.57 3.5 3.5s-1.57 3.5-3.5 3.5-3.5-1.57-3.5-3.5S20.82 8 22.75 8zM12 6c2.481 0 4.5 2.019 4.5 4.5S14.481 15 12 15s-4.5-2.019-4.5-4.5S9.519 6 12 6zm10.75 4c-.827 0-1.5.673-1.5 1.5s.673 1.5 1.5 1.5 1.5-.673 1.5-1.5-.673-1.5-1.5-1.5zM12 8c-1.378 0-2.5 1.121-2.5 2.5S10.622 13 12 13s2.5-1.121 2.5-2.5S13.378 8 12 8z" /></svg>