<svg xmlns="http://www.w3.org/2000/svg" viewBox="0 0 24 24"><path d="M18.5128 13.5644l1.651 1.032c.531.331.837.843.837 1.403s-.306 1.071-.838 1.403l-6.744 4.217c-.405.252-.912.379-1.419.379s-1.014-.127-1.418-.379l-6.746-4.217c-.531-.333-.836-.844-.836-1.403s.305-1.071.837-1.403l1.635-1.022c.468-.291 1.086-.15 1.378.319.292.468.15 1.085-.319 1.378l-1.166.728 6.277 3.923c.164.103.552.102.716 0l6.276-3.923-1.181-.739c-.468-.293-.611-.91-.318-1.378.292-.468.91-.611 1.378-.318zM12 2l.282182.0065575c1.4990498.06981966 2.8985239.69514838 3.965818 1.7784425l.1791067.18989539C18.5763871 6.35360457 18.5167105 10.0642895 16.249 12.369l-.028.026-3.536 3.332-.1003241.0834167C12.4106944 15.9368056 12.205 16 12 16l-.1235926-.0075833C11.6715 15.9671389 11.474 15.8786667 11.314 15.727l-3.535-3.332-.17673418-.1869011C5.42253254 9.80553912 5.48076923 6.09130769 7.752 3.785 8.886 2.634 10.394 2 12 2zm0 2l-.2273965.00644497C10.7919847 4.06217347 9.87714286 4.47764286 9.177 5.188l-.15157333.16255274C7.61074222 6.95262444 7.66126667 9.4251 9.177 10.965L12 13.626l2.835-2.673.1504-.16262c1.4036-1.60241 1.3494667-4.06634667-.1624-5.60238l-.1655138-.15884913C13.924398 4.36386735 12.9889286 4 12 4zm.0005 1.5c1.379 0 2.5 1.122 2.5 2.5s-1.121 2.5-2.5 2.5-2.5-1.122-2.5-2.5 1.121-2.5 2.5-2.5zm0 2c-.275 0-.5.224-.5.5s.225.5.5.5.5-.224.5-.5-.225-.5-.5-.5z" /></svg>