<svg xmlns="http://www.w3.org/2000/svg" viewBox="0 0 32 32"><path d="M24.8721 25.458l-8.872-8.872V4.038c6.703.513 12 6.13 12 12.962 0 3.137-1.104 6.104-3.128 8.458m-3.345-.466c-1.939 1.94-4.517 3.008-7.259 3.008-5.511 0-10.008-4.366-10.246-9.818h10.746l6.79 6.79c-.01.008-.022.011-.031.02M14.0001 7.48v8.702h-9.87c.739-4.839 4.858-8.572 9.87-8.702m1-5.48c-.552 0-1 .447-1 1v2.48c-6.64.145-12 5.58-12 12.253 0 6.764 5.503 12.267 12.268 12.267 3.277 0 6.357-1.276 8.673-3.594.009-.009.012-.021.021-.03l1.229 1.229c.196.196.452.293.707.293.256 0 .512-.097.707-.293 2.834-2.833 4.395-6.598 4.395-10.605 0-8.271-6.729-15-15-15" /></svg>