<svg xmlns="http://www.w3.org/2000/svg" viewBox="0 0 32 32"><path d="M26.1949 6.2738c.995 0 1.805.805 1.805 1.797v7.438c0 .701-.363 1.572-.862 2.07l-10.647 10.887c-.347.348-.8.534-1.283.534-.483 0-.936-.186-1.275-.526l-8.305-8.236c-.341-.338-.52900399-.79-.52900399-1.27-.00099601-.481.18600399-.935.52600399-1.274l11.002-10.578c.486-.483 1.36-.842 2.066-.842zm-.195 2h-7.307c-.18 0-.543.147-.668.272l-10.839 10.421 8.02 7.953 10.511-10.748c.132-.132.283-.492.283-.663v-7.235zm-.1005-5.2734c.553 0 1 .447 1 1 0 .552-.447 1-1 1h-8.58c-.18 0-.546.15-.674.276l-10.949 10.641c-.194.189-.446.283-.697.283-.26 0-.521-.102-.717-.303-.385-.396-.375-1.029.021-1.414l10.942-10.634c.493-.489 1.369-.849 2.074-.849zm-3.8497 7.6884c.832 0 1.506.668 1.506 1.493 0 .826-.674 1.494-1.506 1.494-.833 0-1.506-.668-1.506-1.494 0-.825.673-1.493 1.506-1.493z" /></svg>